<?xml version="1.0" standalone="no"?>
<!DOCTYPE svg PUBLIC "-//W3C//DTD SVG 1.1//EN" "http://www.w3.org/Graphics/SVG/1.1/DTD/svg11.dtd" >
<svg xmlns="http://www.w3.org/2000/svg" xmlns:xlink="http://www.w3.org/1999/xlink" version="1.1">
<metadata></metadata>
<defs>
<font id="dobkinplain" horiz-adv-x="488" >
<font-face units-per-em="2048" ascent="1638" descent="-410" />
<missing-glyph horiz-adv-x="611" />
<glyph unicode="&#xd;" horiz-adv-x="611" />
<glyph unicode=" "  horiz-adv-x="611" />
<glyph unicode="&#x09;" horiz-adv-x="611" />
<glyph unicode="&#xa0;" horiz-adv-x="611" />
<glyph unicode="!" horiz-adv-x="500" d="M178 274l-5 1q51 102 103 205q34 85 58 244.5t24 284.5q0 75 -4 136.5t-18 133.5q28 12 57.5 52.5t33.5 45.5q32 -66 45.5 -129t13.5 -133q0 -78 -14 -155.5t-40.5 -173.5t-69 -191t-103.5 -194q-16 -32 -29.5 -57t-51.5 -70zM114 143q28 0 47.5 -24t19.5 -55 q0 -28 -24 -47.5t-55 -19.5q-28 0 -47.5 24t-19.5 55q0 28 24 47.5t55 19.5z" />
<glyph unicode="&#x22;" horiz-adv-x="512" d="M413 1214q31 0 53.5 -28.5t19.5 -59.5q-9 -69 -70 -120t-238 -143q50 34 135 97t85 111q-39 0 -51.5 23.5t-12.5 52.5q0 28 24 47.5t55 19.5zM606 1214q31 0 53.5 -28.5t19.5 -59.5q-9 -69 -69.5 -120t-237.5 -143q50 34 134.5 97t84.5 111q-39 0 -51.5 23.5t-12.5 52.5 q0 28 24 47.5t55 19.5z" />
<glyph unicode="&#x26;" horiz-adv-x="1872" d="M588 1418q70 31 131.5 46t123.5 15q70 0 134.5 -22.5t114 -64.5t68.5 -86t19 -95q0 -20 -1.5 -31t-13 -69t-46 -112t-106 -101t-145.5 -47q-57 0 -122 32.5t-74.5 84.5t-9.5 71q0 76 50 136.5t140 79.5q-67 -20 -116.5 -68.5t-49.5 -117.5q0 -59 11.5 -93.5t53 -67.5 t96.5 -33q34 0 106 25.5t133.5 106t61.5 179.5q0 51 -19 110t-75.5 98.5t-103 47.5t-65.5 9.5t-37 1.5q-114 0 -215 -56t-178 -139t-109.5 -138t-32.5 -118v-31q4 -16 11.5 -51.5t31.5 -76t61 -60t69.5 -25t60.5 -9.5q-23 -13 -88.5 -23.5t-118 -39.5t-88.5 -61.5t-51.5 -84 t-15.5 -95.5q0 -54 20 -101t137.5 -170t351.5 -123q66 0 203 28t271.5 137t181.5 219.5t59 148.5t14 57l-83 22q-88 19 -173 32t-149 13q-99 0 -177 -28.5t-115 -71t-63 -77.5t-39 -50q28 69 99.5 159t167 130t206.5 40q124 0 269 -39.5t200.5 -54.5t68.5 -15 q42 0 79.5 28.5t74.5 73.5q-16 -54 -76 -97t-111.5 -58t-98.5 -15l-51 3q-60 -209 -204 -378t-287.5 -203.5t-219.5 -45t-153 -10.5q-120 0 -217.5 30.5t-164 87t-93.5 115.5t-27 129q0 22 4.5 49t23.5 88.5t112.5 141.5t200.5 103q-32 13 -58 33.5t-58 45.5t-50.5 66.5 t-18.5 91.5v25t14 91.5t101 168t232 153.5z" />
<glyph unicode="'" horiz-adv-x="207" d="M376 1214q31 0 53.5 -28.5t19.5 -59.5q-9 -69 -69.5 -120t-237.5 -143q50 34 134.5 97t84.5 111q-39 0 -51.5 23.5t-12.5 52.5q0 28 24 47.5t55 19.5z" />
<glyph unicode="(" horiz-adv-x="585" d="M98 -117q0 -23 -1.5 -30.5t-10.5 -7.5q-13 0 -19 41q-4 51 -4 75v17q0 171 48 352.5t171 381t271 351t254.5 196t122.5 48.5t22 4q19 0 19 -11q0 -10 -10 -15.5t-35 -19.5q-183 -73 -323.5 -223.5t-262.5 -355.5t-182 -393t-60 -359v-51z" />
<glyph unicode=")" horiz-adv-x="800" d="M-94 -127q-34 -15 -51 -15q-23 0 -23 15q0 13 217 98.5t453.5 390.5t236.5 687q0 124 -31 211l-12 46q0 6 9 11q13 0 34 -59q20 -47 30.5 -110.5t10.5 -135.5q0 -392 -228.5 -681.5t-645.5 -457.5z" />
<glyph unicode="," horiz-adv-x="219" d="M114 143q31 0 53.5 -28.5t19.5 -58.5q-9 -69 -69.5 -120.5t-237.5 -143.5q50 34 134.5 97t84.5 111q-39 0 -51.5 23.5t-12.5 52.5q0 28 24 47.5t55 19.5z" />
<glyph unicode="-" d="M189 585q25 37 54 53t57 26h342q-38 -23 -54 -43t-25 -36h-374z" />
<glyph unicode="." horiz-adv-x="219" d="M114 143q28 0 47.5 -24t19.5 -55q0 -28 -24 -47.5t-55 -19.5q-28 0 -47.5 24t-19.5 55q0 28 24 47.5t55 19.5z" />
<glyph unicode="/" horiz-adv-x="686" d="M158 -29q-15 -32 -29 -32q-4 4 -5 8q0 16 33 92.5t96.5 183t127.5 189t173 206.5t161 185.5t106 136t90.5 144t49.5 69.5q6 -7 6 -11q0 -3 -9 -26q-70 -132 -155 -256t-207.5 -265.5t-179 -212t-126 -178t-132.5 -233.5z" />
<glyph unicode="0" horiz-adv-x="829" d="M453 1085q39 54 107 93t133 39q73 0 128 -57.5t83 -133t28 -159.5q0 -83 -20.5 -163.5t-84 -250t-207 -311.5t-341.5 -142q-73 0 -138 48.5t-83.5 127.5t-18.5 160q0 155 69.5 297t189.5 262q25 29 59 40q-104 -118 -165.5 -242.5t-61.5 -255.5q0 -53 11 -102.5t36 -103 t79 -79.5t123 -26q145 0 256 113.5t163.5 223t68 175.5t15.5 133q0 66 -17 127.5t-49 111t-69.5 74.5t-70 28.5t-50.5 3.5q-38 0 -67 -10t-65 -43t-56.5 -81.5t-20.5 -105.5q0 -59 14 -99t22.5 -55t19.5 -30q-41 19 -59 64q-25 75 -25 141q0 102 64 188z" />
<glyph unicode="1" horiz-adv-x="560" d="M685 1214q4 4 13 5q13 0 24 -9t5 -19q-118 -252 -183.5 -402t-124 -327t-88.5 -360l-19 -10q-12 0 -25 1.5t-19 1.5q-66 0 -116.5 -23.5t-109.5 -71.5q-10 16 -10 34q0 29 42.5 69t96 117t125 207t184 350.5t183.5 343.5q-1 6 -11 5.5t-11 1.5q-12 -9 -83 -75t-125 -70 q47 26 81.5 58.5t170.5 172.5z" />
<glyph unicode="2" horiz-adv-x="917" d="M704 1201q39 15 82 15q60 0 111.5 -32.5t77.5 -77t34.5 -78t8.5 -64.5q0 -45 -16.5 -95t-74.5 -147t-223 -214q-152 -94 -317 -196.5t-257 -222.5v-7q29 0 65 16t60 26q54 18 124 18q44 0 133 -12t130 -12q63 0 109 17t87 62q0 -60 -48 -103t-107.5 -66.5t-104.5 -23.5 t-165 26.5t-167 26.5q-48 0 -88 -12.5t-80 -44.5q-22 0 -30 13q82 154 254 301.5t331 282.5q173 162 232 325q3 31 4 45.5t1 41.5q0 50 -13 82t-38.5 44.5t-46 17t-36.5 4.5q-41 0 -74.5 -16t-84 -61.5t-86.5 -120t-52 -168.5h-13q0 130 75.5 248t202.5 162z" />
<glyph unicode="3" horiz-adv-x="988" d="M923 1201q51 -22 81 -46t47.5 -65t17.5 -81q0 -41 -28.5 -112.5t-133.5 -119t-173 -78.5q82 -22 116.5 -45.5t61.5 -68.5t27 -102q0 -69 -38.5 -135.5t-104.5 -144.5q22 -16 42.5 -40t46.5 -53q-34 26 -53.5 40.5t-53.5 35.5q-92 -86 -200 -137.5t-221 -51.5 q-61 0 -138 20.5t-110.5 44.5t-47 54t-13.5 49q0 28 16 56t55.5 68t105.5 64t141 24q94 0 185 -33.5t169 -88.5q91 76 90 201q0 39 -8.5 79t-30 63.5t-50.5 40t-48 16.5q-20 0 -60 -15t-50 -18v16q34 29 151 97t177.5 130t60.5 150q0 31 -7 64t-27.5 56.5t-53.5 28.5t-59 5 q-92 0 -162 -46t-119 -127q-34 -64 -68 -127q0 85 53 158t121.5 117t112 60t86.5 16q47 0 94 -19zM563 303q-57 15 -117 14q-139 0 -210 -54.5t-71 -104.5q0 -19 8 -43t25 -39t61.5 -31t103.5 -16q99 0 190.5 55.5t157.5 151.5q-35 28 -66.5 41.5t-81.5 25.5z" />
<glyph unicode="4" horiz-adv-x="855" d="M708 1185q10 -1 31 -2q31 0 60.5 8.5t65.5 22.5q-70 -193 -180 -368t-196.5 -275.5t-110 -119.5t-39.5 -40q7 1 25 2q41 0 131 -26.5t100 -28.5q34 64 104 180.5t125 204.5t57 88q18 1 20 0q10 -6 4.5 -20.5t-59 -131.5t-154.5 -343q34 -13 67 -13q23 0 55 7.5t62 19.5 q7 -4 8 -12q-1 -10 -2 -15q-45 -16 -72 -22t-54 -6q-18 0 -35 3t-44 9q-41 -73 -60 -165q-16 -101 -22 -142h-216q98 165 197 331q-37 12 -103 34.5t-119 22.5q-19 0 -41 -5q-51 -57 -106.5 -92.5t-114.5 -35.5q-18 0 -26.5 1t-17.5 10t-9 29q0 19 21.5 50t131 49.5 t175 99.5t163.5 274t178 417zM217 369q-32 -6 -67.5 -21.5t-35.5 -31.5q0 -6 8 -12t17 -6q20 0 49.5 20t54.5 45q-4 7 -13 7q-9 -1 -13 -1z" />
<glyph unicode="5" horiz-adv-x="887" d="M642 1211q12 4 18 5q13 0 19.5 -19t28.5 -33t56.5 -31t76.5 -17h26q13 4 33 8.5t62 41t43 38.5q-15 -54 -59.5 -98.5t-79.5 -58t-52.5 -16.5t-35.5 -3q-35 0 -79.5 11t-85.5 23q-26 -42 -94 -159t-89 -150q83 31 122.5 42.5t67.5 11.5h31l78 -19.5t106 -92t44 -148.5 q0 -80 -34.5 -157t-98.5 -182q61 -45 95 -95q-13 7 -49 39t-53 44q-94 -92 -209 -144.5t-239 -52.5q-67 0 -146 19t-89.5 72t-10.5 59q0 54 47 96.5t126.5 63t179.5 20.5q171 0 292 -83q23 38 34.5 63t19.5 61.5t14 69.5t6 60q0 42 -12.5 77.5t-64 90.5t-153.5 55l-50 -3 q-42 -4 -98.5 -41.5t-68.5 -42.5q61 88 163.5 266.5t161.5 308.5zM180 178q-16 -20 -16 -45q0 -44 42.5 -74t110.5 -30q41 0 83.5 12t126.5 48.5t155 141.5q-60 25 -124.5 39.5t-128.5 14.5q-76 0 -139 -25t-110 -82z" />
<glyph unicode="6" horiz-adv-x="763" d="M863 1214l7.5 -2.5t5.5 -6.5q1 -4 0.5 -7.5t-3.5 -8.5q-186 -101 -343.5 -237t-258 -310.5t-100.5 -372.5q0 -66 9 -118t35 -78t69 -26q86 0 153.5 40t106 105t60 128t21.5 123q0 42 -12 81t-34 68.5t-41.5 38t-43.5 8.5q-13 0 -28 -2t-52 -12.5t-72 -60t-58 -119.5h-13 q12 83 47.5 145t103 104t124.5 42q28 0 73 -12t73.5 -67.5t28.5 -122.5q0 -142 -69.5 -261t-153 -183t-132.5 -83t-103 -19q-67 0 -122.5 35.5t-77.5 88t-22 124.5q0 38 2 57.5t22 134.5t155 284t282.5 278.5t212.5 147.5t148 76z" />
<glyph unicode="7" horiz-adv-x="633" d="M503 1204q47 -7 77.5 -22.5t66.5 -44.5q-9 0 -76.5 19t-92.5 19t-45 -8t-38 -28t-28 -34.5t-10 -27.5q0 -12 12.5 -35.5t46 -33.5t81.5 -10h46.5t29.5 -2q85 23 162.5 68t191.5 122l3 -7q-116 -127 -231 -253q-110 -157 -219 -312q54 -3 92 -5.5t64 -14.5 q-37 -13 -80 -17t-101 -4q-120 -189 -186.5 -387t-66.5 -405q-31 -6 -71 -37.5t-87 -71.5q0 234 88.5 461t240.5 436q-34 0 -80.5 -10t-48.5 -10q-6 15 0 30t21 40h137q70 95 168.5 204t191.5 213l-13 10q-82 -41 -159.5 -67.5t-152.5 -26.5q-101 0 -146 45.5t-45 85.5 q0 18 4.5 31.5t19.5 40t57 41.5t97 15q35 0 79 -7z" />
<glyph unicode="8" horiz-adv-x="776" d="M610 1194q56 18 110 17q69 0 120.5 -27.5t76 -79t24.5 -100.5q0 -67 -41 -134.5t-105.5 -111.5t-168.5 -97q35 -73 54 -141.5t19 -139.5q0 -64 -21 -124t-76 -120t-132.5 -97.5t-163.5 -37.5q-54 0 -121 20t-105.5 87.5t-38.5 118.5q0 57 25.5 112.5t82 126.5t186 125 t247.5 102q-44 89 -53.5 119.5t-9.5 63.5q0 28 6.5 53t23.5 56h19q-20 -72 -23.5 -86.5t-3.5 -45.5q0 -20 1.5 -31.5t9 -32.5t14.5 -35.5t31 -52.5q92 29 158.5 96.5t66.5 157.5q0 64 -20.5 109t-70 70t-84.5 25q-32 0 -81.5 -26t-87.5 -80.5t-44 -132.5q0 -32 4 -61.5 t18 -75.5q-42 48 -42 125q0 29 19 132.5t177 153.5zM405 547q-105 -73 -167 -145.5t-62 -160.5q0 -22 1 -33.5t20.5 -70.5t106.5 -76q101 0 174 29.5t120 88t63 112.5t16 113q0 66 -16.5 128t-49.5 120q-64 -25 -108 -46.5t-98 -58.5z" />
<glyph unicode="9" horiz-adv-x="728" d="M671 1214q73 0 129.5 -36.5t69 -106t12.5 -133.5q0 -199 -101.5 -355.5t-236 -263.5t-271.5 -199t-170 -106t-61 -14v13q224 149 366.5 270.5t243 291.5t100.5 385v51q-4 37 -7 67.5t-27.5 61t-51.5 34.5t-50 4q-78 0 -140.5 -45.5t-117 -157.5t-54.5 -192 q0 -83 40.5 -136t98.5 -53q20 0 65 13t90.5 61.5t59.5 115.5q6 -10 6 -26q0 -37 -38.5 -101.5t-99.5 -110.5t-146 -46q-42 0 -81 22t-58 59q-42 72 -42 153q0 110 73 229.5t170 185t229 65.5z" />
<glyph unicode=":" horiz-adv-x="392" d="M369 688q28 0 47.5 -24.5t19.5 -54.5q0 -28 -24 -48t-55 -20q-28 0 -47.5 24.5t-19.5 54.5q0 28 24 48t55 20zM176 143q28 0 47.5 -24t19.5 -55q0 -28 -24 -47.5t-55 -19.5q-28 0 -47.5 24t-19.5 55q0 28 24 47.5t55 19.5z" />
<glyph unicode=";" horiz-adv-x="355" d="M164 143q31 0 53.5 -28.5t19.5 -58.5q-9 -69 -69.5 -120.5t-237.5 -143.5q50 34 134.5 97t84.5 111q-39 0 -51.5 23.5t-12.5 52.5q0 28 24 47.5t55 19.5zM322 688q28 0 47.5 -24.5t19.5 -54.5q0 -28 -24 -48t-55 -20q-28 0 -47.5 24.5t-19.5 54.5q0 28 24 48t55 20z" />
<glyph unicode="?" horiz-adv-x="760" d="M344 143q28 0 47.5 -24t19.5 -55q0 -28 -24 -47.5t-55 -19.5q-28 0 -47.5 24t-19.5 55q0 28 24 47.5t55 19.5zM217 418q37 -54 89 -54q56 0 119.5 41t86 82t39.5 100q0 -50 -12 -83.5t-48 -77t-91 -68t-109 -24.5q-94 0 -124.5 40t-38.5 63.5t-8 48.5q0 38 13 76.5 t58.5 114t179.5 140.5t251 122q110 73 109 199q0 44 -21 73.5t-59 34.5t-70 5q-113 0 -205 -54.5t-170 -152.5q-54 -76 -107 -152q25 104 104 192.5t167.5 140t143 70.5t106.5 19q57 0 105.5 -22t84.5 -48.5t47.5 -74.5t11.5 -72q0 -64 -45.5 -144t-104 -121t-117.5 -65.5 t-174.5 -68t-173 -102t-57.5 -118.5q1 -32 20 -60z" />
<glyph unicode="A" horiz-adv-x="1487" d="M1513 1453q97 -18 142 -43.5t97.5 -90.5t52.5 -162q0 -31 -7 -63t-33.5 -98t-107 -117.5t-180.5 -51.5q67 18 126.5 63t92 114.5t32.5 142.5q0 110 -61.5 177t-133.5 94t-156 27q-73 0 -148 -16.5t-285.5 -97t-425.5 -357t-238 -456.5t-23.5 -194.5t-0.5 -22.5 q0 -53 13 -89t68 -84.5t149 -48.5q80 0 258.5 107t374 327.5t326.5 513.5l-13 10q-151 -151 -265.5 -210t-206.5 -59q-73 0 -122.5 25.5t-69 50.5t-19.5 53q0 15 14.5 48.5t61.5 58t110 24.5q42 0 75.5 -6.5t59.5 -17.5t48 -22q-50 7 -82 12t-50 5q-28 0 -47.5 -5t-40 -19.5 t-34 -28t-13.5 -39.5q0 -10 5.5 -28.5t33 -36.5t51.5 -20.5t34 -2.5h20q126 0 232 69t188.5 170t170.5 234h7v-32q-162 -329 -235.5 -481.5t-155 -358t-139.5 -413.5q-31 -12 -77 -11q-28 0 -83.5 5.5t-74.5 5.5q10 26 72.5 110.5t92.5 128.5t60.5 93t65.5 139 q-88 -101 -203.5 -210t-264.5 -198t-284 -89q-38 0 -101.5 14.5t-113.5 83.5t-61 148.5t-11 122.5q0 149 64 279t168.5 245t281.5 265t370 236t410 86q69 1 139 -8z" />
<glyph unicode="B" horiz-adv-x="1454" d="M865 1429q50 12 106 19.5t110 7.5q149 0 260.5 -54.5t143 -142t31.5 -140.5t-18.5 -102.5t-53 -106t-101 -103t-83.5 -62.5q94 -89 125 -153t31 -127q0 -20 -14.5 -102t-85 -174t-176.5 -137t-197.5 -66t-171.5 -21q-88 0 -160.5 22.5t-139.5 75.5v17q108 -73 249 -73 q92 0 313 77t250 271t29 205q0 56 -24 100t-68 64q-63 -25 -132.5 -43t-127.5 -18q-53 0 -92.5 11t-66.5 30.5t-27 43.5q0 20 25 39t66.5 31.5t86.5 12.5q50 0 87.5 -7.5t170.5 -46.5q85 56 134.5 140t49.5 182q0 20 -1.5 31.5t-13 72.5t-71.5 121t-146.5 79.5t-160.5 19.5 q-126 0 -236 -47.5t-175.5 -123.5t-114.5 -155.5t-76 -152.5q47 4 86.5 20t115 63t147 119.5t162.5 189.5q-82 -184 -166 -376t-158 -384.5t-115.5 -323.5t-49.5 -178.5t-13 -67.5q-29 0 -77.5 -2.5t-49.5 -2.5q-19 0 -41.5 1t-55.5 11q113 206 220.5 403t219.5 404.5 t183 348.5l-7 7q-101 -88 -150 -126.5t-114 -74.5t-142 -53q-13 -67 -15.5 -149.5t-2.5 -128.5q-10 12 -14 35t-4 45q0 80 1.5 109.5t13.5 85.5q-20 -3 -46 -7t-51 -4q-34 0 -90.5 14t-78.5 29.5t-28.5 42t-6.5 43.5q0 51 49.5 93t153.5 42q80 0 140 -35v-11q-39 7 -62.5 11 t-52.5 4q-53 0 -95.5 -26.5t-42.5 -80.5q0 -26 22 -49.5t59.5 -37.5t76.5 -14q16 0 26.5 1.5t29.5 6.5q76 178 201.5 315.5t287.5 172.5zM853 777q-16 -9 -16 -32q0 -22 29 -38.5t92 -16.5q56 0 110 16.5t94 42.5q-85 53 -195 53q-32 0 -60.5 -6t-53.5 -19z" />
<glyph unicode="C" horiz-adv-x="1369" d="M1078 1463q39 4 75 4q45 0 152 -14t152 -14q85 0 171 24q-12 -34 -57 -56q-61 -23 -97.5 -40t-85.5 -26.5t-98 -9.5q-59 0 -172.5 16t-166.5 16q-66 0 -121 -16t-132.5 -77.5t-122.5 -112.5t-129 -192q195 54 350.5 136t266.5 216h18q-42 -117 -138 -344.5t-151.5 -380 t-90.5 -310.5q-13 -1 -55 -2.5t-43 -1.5q-53 0 -97 4v31q120 197 242 420.5t244 464.5q-22 -13 -91 -65.5t-134 -88.5t-115.5 -51.5t-217.5 -56.5q-28 -47 -42.5 -76t-29.5 -98.5t-15 -158.5q0 -138 49.5 -255.5t161.5 -208.5t271 -91q72 0 149 18.5t136 50t151 116.5 q25 4 25 -27q0 -12 -56 -58t-200.5 -97t-285.5 -51q-80 0 -155 16t-137 50.5t-106 91.5t-80 132.5t-47.5 115t-11.5 96.5q0 113 32 218t85 207q-29 -3 -42.5 -4t-25.5 -1q-16 0 -29.5 1.5t-49.5 13t-67 30.5t-36 60q-4 38 13 63.5t61 62t108 36.5q42 0 80.5 -13.5 t79.5 -40.5q-22 -3 -66.5 5t-62.5 8q-23 0 -40.5 -6.5t-34.5 -24.5t-28 -39.5t-11 -43.5q0 -12 4.5 -32t36 -35.5t75.5 -15.5q23 0 36 3t19 3q102 140 206 244.5t233.5 175t290.5 86.5z" />
<glyph unicode="D" horiz-adv-x="1366" d="M1090 1453q157 -42 241.5 -129.5t121 -191.5t36.5 -218q0 -91 -35.5 -266t-239 -377t-378.5 -236.5t-270 -34.5q-121 0 -231 33t-197 99v13q41 -6 106 -42.5t123.5 -50t132.5 -13.5q192 0 356 96t277 228.5t161.5 252.5t48.5 251q0 104 -36 221t-113.5 194.5t-163.5 97.5 t-133 20q-98 0 -186.5 -48.5t-157.5 -118.5t-106 -136.5t-56 -138.5q159 35 257 87t153.5 107.5t152.5 174.5h17q-47 -111 -160 -363.5t-188.5 -435.5t-130.5 -358l-191 7q-6 7 -6 18q0 12 10.5 31.5t55 81.5t117 187t191.5 344t190 330q-108 -85 -188.5 -137t-282.5 -97 q-3 -15 -4.5 -32.5t-1.5 -33.5q0 -42 8.5 -78t26.5 -79q-26 20 -37 38q-10 26 -18 49t-8 67q0 22 1.5 38t4.5 29q-108 0 -180 20.5t-93 65t-21 58.5q0 26 22.5 53t66.5 47t100 20q35 0 66.5 -8t74.5 -27h-38t-38 1q-86 0 -117.5 -20.5t-37.5 -58.5q-4 -31 14 -53t49.5 -44 t64.5 -27t71 -5q38 114 80 194.5t115.5 154.5t178.5 120t217 46q66 1 135 -17z" />
<glyph unicode="E" horiz-adv-x="1335" d="M1121 1463q56 0 180 -12.5t168 -12.5q51 0 87 4.5t78 20.5q-60 -59 -131 -81.5t-159 -22.5q-39 0 -167 14t-181 14q-75 0 -135.5 -14.5t-145.5 -70.5t-168 -149.5t-132 -194.5q193 25 367.5 120t289.5 255q-15 -59 -44.5 -125t-70.5 -155.5t-81.5 -187.5t-70.5 -196 q59 67 111 119t108.5 84t125.5 32q38 0 90.5 -17t52.5 -77q0 -41 -15.5 -69.5t-44.5 -39.5q-10 22 -19 45q-15 28 -45.5 38t-68.5 10q-73 0 -136.5 -38.5t-140.5 -114.5t-110.5 -164t-33.5 -195h-198l9 22q86 143 165 281t143.5 255.5t197.5 363.5q-23 -25 -87.5 -64.5 t-126.5 -79t-156 -74t-215 -47.5q-35 -82 -55 -165.5t-20 -170.5q0 -63 10.5 -124.5t42.5 -152t127 -166t181.5 -88.5t143.5 -13q154 0 432 171v-21q-127 -105 -259.5 -163.5t-268.5 -58.5q-102 0 -218.5 41.5t-196.5 118.5t-105.5 170t-25.5 170q0 113 37.5 229t98.5 220 q-18 -1 -31 -2t-22 -1q-48 0 -84.5 11t-65 36t-41 47.5t-12.5 46.5q0 18 11.5 47t50.5 48.5t95 19.5q47 0 84 -10t51.5 -16.5t29.5 -15.5q-7 1 -39.5 3.5t-49.5 2.5q-56 0 -92.5 -14t-48.5 -40.5t-12 -40.5q0 -26 22 -51t50 -40t56 -15q9 0 31.5 1.5t23.5 1.5 q111 146 226 256t255.5 181t297.5 71z" />
<glyph unicode="F" horiz-adv-x="1170" d="M705 1384q78 39 156 55.5t170 16.5q94 0 290.5 -26t259.5 -26q80 0 150 12.5t137 44.5q-88 -86 -207 -117.5t-273 -31.5q-73 0 -220.5 10.5t-216.5 10.5q-212 0 -342.5 -82t-179.5 -318q35 0 58 8q28 12 115 41.5t196 108t227 202.5q-32 -116 -155.5 -400t-130.5 -306 l6 -8q118 145 189 208.5t176 63.5q45 0 85.5 -13t62 -37t21.5 -59q0 -47 -12 -65.5t-34 -40.5q-22 12 -41.5 49.5t-54.5 37.5q-9 1 -19.5 1h-15.5q-138 0 -254.5 -96.5t-200.5 -257.5t-120 -369q-45 -3 -114 -6.5t-125 -3.5q120 187 241 394t216 388t199 393l-8 6 q-116 -95 -246.5 -167t-257.5 -92q0 -97 19 -145q22 -47 43 -92q-28 26 -43 47.5t-29 52t-18.5 72t-5.5 62.5q-38 -6 -55 -6.5t-27 -0.5q-75 0 -133.5 23t-78 58.5t-19.5 55.5t10 39.5t33 42t62.5 36.5t81.5 14q69 0 133 -31v-15q-19 4 -41 7.5t-42 3.5q-35 0 -61.5 -8 t-53.5 -33t-27 -60q0 -15 15.5 -45.5t57.5 -44t110 -13.5h35q25 145 103 263t204 188z" />
<glyph unicode="G" horiz-adv-x="1420" d="M1431 1434q10 -3 25.5 -4.5t26.5 -1.5q31 0 69 10t75 20q-51 -59 -115.5 -82t-145.5 -23q-53 0 -172 12.5t-167 12.5q-61 0 -109.5 -8t-138 -45.5t-192.5 -144t-173 -229.5q44 4 75.5 9t139 46t213.5 113.5t202 198.5v-31q-16 -38 -96.5 -204.5t-116.5 -279.5l7 -7 q97 101 179.5 158.5t186.5 57.5q39 0 93.5 -13t100.5 -68t61.5 -125t15.5 -124q0 -152 -86 -282.5t-210 -227.5t-235.5 -137.5t-223.5 -40.5q-140 0 -268 62q-102 56 -171 147t-83 179t-14 137q0 110 37.5 214t101.5 193q-76 0 -118.5 14.5t-85.5 54t-43 85.5q0 23 11 48 t44 42.5t71 26t67 8.5q44 0 81.5 -15t76.5 -48q-35 13 -65.5 20t-64.5 7q-56 0 -89.5 -29.5t-33.5 -77.5q0 -13 4.5 -41t47.5 -43t116 -23q26 45 63 88.5t122.5 140t254.5 190t384 93.5q129 1 265 -33zM936 1160q-99 -69 -182 -121t-167.5 -83t-182.5 -31 q-39 -75 -60.5 -155.5t-21.5 -166.5q0 -92 24 -171t93 -170.5t170.5 -135t246.5 -43.5q143 0 242 80t157.5 184t76.5 164.5t18 121.5q0 64 -25 121.5t-82.5 108t-124.5 50.5q-28 0 -59 -9q-116 -42 -195.5 -136.5t-130 -219t-81.5 -257.5l-175 -7q-18 3 -26 7t-8 19 q0 7 2 12z" />
<glyph unicode="H" horiz-adv-x="1576" d="M888 1447q66 10 140 10q72 0 260 -22.5t260 -22.5q79 0 139.5 11t127.5 41q-20 -39 -69 -67t-104 -46t-111 -25t-130 -7q-79 0 -242.5 16.5t-242.5 16.5q-162 0 -274 -50t-160 -141.5t-55 -128.5t-7 -96q176 41 321 126t258 225h10q-28 -91 -49 -140.5t-92.5 -201 t-99.5 -224.5q18 15 48.5 48.5t95 91.5t165.5 119.5t203 61.5q69 0 137.5 -34t109.5 -78t58.5 -114t17.5 -134q0 -174 -106.5 -328.5t-273.5 -271.5q-80 -42 -172.5 -68.5t-181.5 -26.5q-53 0 -102.5 10t-84.5 30t-35 52q37 -35 82 -52t100 -17q72 0 218.5 48.5t256 209.5 t121.5 281t12 144q0 57 -20 102.5t-60 79t-78 47t-78 13.5q-29 0 -120 -15.5t-189.5 -115t-171.5 -246.5t-123.5 -254.5t-68 -167.5t-17.5 -129q-9 1 -19.5 1.5t-16.5 0.5q-15 0 -63.5 -5t-73.5 -5q-34 0 -64 8v38q118 159 222 332.5t210.5 373.5t206.5 387l-7 6 q-117 -92 -238.5 -157t-243.5 -83q0 -50 3 -66t15.5 -58.5t24 -74t13.5 -34.5q-20 26 -30 42.5t-21.5 46.5t-16.5 68t-10 73q-130 0 -207 20.5t-106 102.5q-3 18 -3 23q0 38 38 63t53 34q39 15 89 15q72 0 129 -33q-9 -1 -31 -1q-32 1 -49 1q-60 0 -86 -12t-38.5 -35.5 t-12.5 -47.5q0 -32 21.5 -56t59.5 -33.5t83 -9.5h27t29 1q0 53 6.5 92.5t49 134t162.5 181.5t272 106z" />
<glyph unicode="I" horiz-adv-x="1186" d="M1362 1346q76 45 120 68.5t111 48.5q-168 -95 -253 -248t-160.5 -407t-121.5 -353q54 -61 75 -95.5t31 -94.5q-28 61 -52.5 95.5t-67.5 68.5q-110 -211 -295.5 -319.5t-436.5 -108.5q-92 0 -152.5 41t-73.5 99.5t-13 86.5q0 75 42.5 138.5t120 125.5t179 93.5t207.5 31.5 q85 0 167.5 -19t156.5 -54q89 203 139 308.5t113 215.5t154 225q-38 -13 -115.5 -58.5t-141.5 -69.5t-122.5 -38.5t-112.5 -14.5q-59 0 -105 17.5t-92.5 64.5t-46.5 106q0 44 25.5 75.5t67.5 49.5q69 32 144 32q50 0 96.5 -17t72 -41t36.5 -38.5t17 -21.5q-39 20 -89.5 37 t-96.5 17q-29 0 -51.5 -6t-55.5 -32.5t-33 -75.5q0 -13 6.5 -36t30 -40.5t66 -27t89.5 -9.5q117 0 229.5 66.5t191.5 113.5zM616 575q-162 -26 -271 -103t-130.5 -164t-21.5 -116q0 -39 12.5 -71t56.5 -65t111 -33q32 0 55.5 4.5t103 28t159.5 95t129.5 155t105.5 205.5 q-59 35 -115 53t-116 18q-32 0 -79 -7z" />
<glyph unicode="J" horiz-adv-x="1277" d="M968 1458q88 0 157.5 -32.5t142.5 -97.5q-50 31 -98.5 53t-95.5 22q-57 0 -101 -34q-9 -15 -26.5 -35t-17.5 -42q0 -10 11 -41.5t49.5 -47t112.5 -27.5q91 0 174 28.5t141.5 63.5t174.5 116q26 -9 60.5 28.5t51.5 37.5q9 0 18 -5q-3 -18 -39 -47.5t-120 -115t-173.5 -287 t-185 -522.5t-157.5 -464q-19 -10 -27.5 -20.5t-8.5 -20.5q0 -16 36 -50t33 -56q-25 0 -42.5 34.5t-36.5 42.5q-143 -181 -309.5 -294t-353.5 -113q-50 0 -102 9q-48 15 -87 50.5t-64 85.5q-4 26 -5 49q0 105 68.5 186.5t152.5 127.5t154 61t148 15q157 0 275 -62l55 75 q121 322 188 482.5t171 344.5t247 347l-9 6q-99 -75 -214.5 -122t-228.5 -47q-63 0 -115.5 13.5t-106.5 47.5q-26 25 -45.5 54t-19.5 59q0 18 14 50t57 57t97 37zM413 13q-97 -54 -163 -147.5t-66 -201.5q15 -39 32.5 -66t49.5 -34q31 -4 60 -4q117 0 219 69.5t177 168 t148 224.5q-38 28 -94 42.5t-113 14.5q-67 0 -133.5 -17.5t-116.5 -48.5z" />
<glyph unicode="K" horiz-adv-x="1366" d="M1235 1319q75 67 164.5 109t173.5 42q97 0 157.5 -45.5t60.5 -105.5q0 -26 -25 -71.5t-97.5 -72.5t-171.5 -27q-42 0 -86.5 14t-85.5 29v14q34 -10 69 -15t72 -5q57 0 97 14.5t62 47t30 47.5t8 33q0 16 -22.5 41.5t-56 42.5t-66.5 17q-34 0 -72.5 -17t-107 -60t-131 -97 t-122.5 -124.5t-122 -146.5q23 -176 48 -352t63 -386t104 -507q-130 272 -195.5 446t-102 325t-71.5 303q-139 -193 -265 -404t-222 -415h-52.5t-54.5 -2q-38 0 -69.5 3t-60.5 13q126 212 270.5 454.5t256 441.5t209.5 397q-78 -82 -195 -145.5t-225 -63.5q-42 0 -81 12.5 t-78.5 42.5t-39.5 93q7 57 52.5 86.5t93.5 36.5t75 7q54 0 105 -17.5t101 -49.5q-34 3 -75.5 8t-63.5 5q-47 0 -80.5 -8t-63 -32t-29.5 -58q0 -13 7 -37t35.5 -40.5t69.5 -16.5q31 0 62 7t104.5 30t166.5 119q99 117 149 169l25 -4q-133 -278 -250.5 -550t-220.5 -536h10 q167 285 343.5 513.5t416.5 447.5z" />
<glyph unicode="L" horiz-adv-x="1682" d="M1659 1457q129 0 210 -25t103.5 -88t22.5 -98q0 -44 -19.5 -87.5t-82 -126.5t-193 -138.5t-282.5 -55.5t-297 50q-64 -117 -136 -246.5t-144 -233.5t-167 -190l59 -26q121 -53 223.5 -81.5t202.5 -28.5q92 0 170 28.5t147 92.5q4 -1 5 -10.5t2 -21.5q-114 -85 -222 -130 t-238 -45q-16 0 -34.5 1.5t-67 5t-180 71.5t-146.5 74q-69 -70 -151.5 -112.5t-168.5 -42.5q-61 0 -105 17.5t-58.5 43.5t-14.5 60v24q4 12 15 48t79 59.5t136.5 30t80.5 6.5h18q57 0 104.5 -11t102.5 -34q66 53 127.5 133.5t96 163t77.5 214t83 203.5q-56 39 -86 81.5 t-36 102.5q25 -50 50.5 -76t87.5 -73q105 193 265.5 323t360.5 148zM1663 1425q-130 -32 -221.5 -109.5t-162.5 -186t-134 -210.5q69 -18 122.5 -24.5t119.5 -6.5q171 0 298 79t152 169.5t31.5 115.5t6.5 50q0 26 -9.5 46t-43 52t-100.5 32q-25 0 -59 -7zM211 178 q-12 -16 -12 -32q0 -18 17 -39.5t41.5 -32.5t59.5 -11q26 0 58 6.5t62.5 14.5t47.5 19t78 62q-59 18 -126.5 39t-114.5 21q-35 0 -63 -11t-48 -36z" />
<glyph unicode="M" horiz-adv-x="2081" d="M800 1400q75 31 157.5 46t165.5 15q140 0 282.5 -33.5t353.5 -102t273 -84.5q67 61 108 87.5t104.5 56.5t115.5 53q57 22 112 22h37q18 -4 30 -6.5t24 -18.5t12 -37q0 -16 -40.5 -72t-148 -85.5t-266.5 -29.5h-73q-146 -170 -241.5 -303t-156 -290t-60.5 -342 q0 -70 8 -133.5t27.5 -88.5t47.5 -29.5t35 -4.5q63 0 117 46.5t91 76.5q13 -12 13 -25t-9 -21q-70 -48 -144 -94.5t-156 -46.5q-25 0 -42.5 3t-57 20t-66.5 62t-27 110q0 205 85.5 384.5t227 351t272.5 327.5q-23 4 -78 10t-96 15.5t-219.5 52t-309 64.5t-247.5 22 q-197 0 -343 -69.5t-201 -175.5t-60 -123.5t-5 -67.5q145 18 284 106.5t246 212.5q-26 -78 -78.5 -178.5t-105 -204t-78.5 -180.5q34 -6 74 -6q85 0 168.5 31.5t155 79.5t156.5 122q56 53 115 127t113 142q-91 -193 -191.5 -411t-167 -401t-103.5 -383q-28 -4 -74.5 -6 t-52.5 -2q-25 0 -47 1t-78 7q60 86 160.5 268t200.5 365t170 284q-133 -121 -283.5 -186.5t-326.5 -65.5q-95 -183 -160 -340t-107 -325q-61 -7 -117 -8q-63 0 -111 15q67 110 150.5 243.5t140.5 227.5t111 194q-72 37 -119.5 96.5t-64.5 139.5q-149 0 -220.5 36.5 t-81.5 74.5t-10 45q0 31 20.5 54t68 42.5t110.5 19.5q80 0 140 -39q-13 -3 -29.5 -3h-27.5q-80 0 -123 -9.5t-57 -38t-14 -43.5q0 -26 19.5 -48t59 -36t63.5 -18.5t77 -4.5q0 143 113.5 273.5t259.5 187.5zM2408 1390q-86 0 -154 -29.5t-147 -90.5l-39 -35q10 -3 32.5 -5.5 t49.5 -2.5q120 0 186 27t87 52t17 53q-6 31 -32 31zM859 1099q-45 -44 -91.5 -75.5t-105 -56.5t-103 -38t-101.5 -19q16 -61 65 -121t110 -80q15 25 79 151t147 239z" />
<glyph unicode="N" horiz-adv-x="1512" d="M1864 1445q42 12 69 18.5t54 6.5q32 0 51.5 -11.5t19.5 -36.5q0 -89 -68 -119t-144 -53t-133 -23q-60 0 -105 21q-143 -155 -244.5 -298.5t-166.5 -311t-65 -338.5q0 -48 6.5 -106t31.5 -94.5t68 -36.5h20q60 0 110.5 38.5t82.5 65.5q-15 -44 -30 -60t-59 -48.5 t-82 -47.5t-80 -15q-35 0 -111.5 23t-94 108t-17.5 142q0 123 50.5 238.5t135.5 236.5t142 199t143.5 171.5t121.5 140.5q-139 39 -257.5 60t-259.5 21q-208 0 -357 -56.5t-193.5 -153t-55 -129.5t-10.5 -67q146 0 276.5 94.5t232.5 240.5h21q-64 -146 -139.5 -304.5 t-145.5 -289.5q104 0 191 66t141 161h9q-25 -99 -138 -177.5t-218 -78.5q-63 -152 -128 -317.5t-86 -305.5q-41 -10 -125 -14t-103 -4q86 164 174 330t198 338q-38 23 -66.5 41.5t-50 44t-38 60.5t-29.5 66q-127 0 -203.5 21t-94.5 71t-18 60q0 32 28.5 59t74.5 44t104 17 q72 0 149 -30q95 148 236.5 235t308.5 87q136 0 291.5 -54t300.5 -105q29 15 117 77t157 82zM1932 1390q-29 19 -61 19q-48 0 -98.5 -36t-101.5 -87q48 -19 98 -19q37 0 81 14.5t72.5 36.5t28.5 45q0 17 -19 27zM291 1116q-37 -4 -61.5 -30.5t-24.5 -57.5q0 -15 15.5 -44.5 t63.5 -41.5t121 -12q0 44 9 87.5t31 91.5q-26 6 -46 9t-45 3q-29 -1 -63 -5zM572 922q-22 -10 -63.5 -20.5t-63.5 -17.5q13 -54 59 -107.5t105 -81.5q57 72 103.5 161t97.5 203q-45 -42 -85 -64t-153 -73z" />
<glyph unicode="O" horiz-adv-x="1260" d="M824 1423q86 41 184 41q108 0 199 -51t133 -135t59 -155t17 -144q0 -143 -58 -282.5t-181.5 -307.5t-293 -284.5t-356.5 -116.5q-78 0 -173 26.5t-157 75t-101.5 159.5t-39.5 234q0 165 73.5 318t196.5 284t247 196q-174 -133 -286.5 -316.5t-112.5 -386.5q0 -39 4.5 -78 t14.5 -82q28 -92 94.5 -170t132.5 -109.5t109 -40.5t88 -9q116 0 228 55t218.5 167t182.5 268.5t76 318.5q0 56 -8.5 108.5t-39.5 138t-102.5 150t-137.5 77.5t-83.5 14.5t-33.5 1.5q-88 0 -161 -47.5t-130.5 -142t-57.5 -219.5q0 -75 24 -149t59 -121.5t70 -78t79 -65.5 q-111 42 -173 128.5t-72.5 167.5t-10.5 115q0 148 73.5 266t206.5 181z" />
<glyph unicode="P" horiz-adv-x="1250" d="M968 1457q18 3 42 4.5t46 1.5q138 0 246 -55t158 -150t50 -195q0 -78 -22 -151.5t-112 -204.5t-325 -220t-524 -89q-48 -67 -78.5 -165t-50.5 -220q-34 0 -97 -6.5t-70 -6.5q-29 0 -41.5 2t-34.5 11q117 196 236 392q-95 18 -172 82q31 0 83 -30t81 -30q7 0 22 3 q48 94 158 277.5t151.5 256.5t87.5 180q-132 -101 -216 -155t-181 -73q-12 -35 -21.5 -69.5t-16.5 -101.5v76.5t10 89.5q-37 -3 -55.5 -4t-34.5 -1q-60 0 -106 13t-77.5 45t-31.5 79q0 34 25.5 62.5t67 44.5t95.5 16q26 0 54 -4.5t49.5 -14t49.5 -21.5q-60 10 -120 21 q-23 0 -44.5 -7.5t-48.5 -32t-37.5 -44.5t-10.5 -39q0 -12 14.5 -39.5t59.5 -44.5t106 -17h23q18 3 25 3q66 200 227 355.5t361 175.5zM926 1387q-164 -19 -318.5 -154.5t-199.5 -302.5q104 26 195.5 89.5t169.5 146.5t121.5 139.5t53.5 56.5q7 0 13 -3t2 -9 q-51 -108 -156 -316.5t-164 -338.5t-109 -275q276 0 493.5 112t274.5 272t57 236q0 64 -22.5 122t-74.5 116t-118.5 85.5t-147.5 27.5q-32 0 -70 -4z" />
<glyph unicode="Q" horiz-adv-x="1277" d="M1128 1448q54 -19 90 -42.5t87 -78t82.5 -144.5t31.5 -197q0 -72 -36 -241.5t-132.5 -313.5t-347.5 -315q82 -117 163 -236q-42 22 -104 81t-116 115q-91 -44 -177.5 -69.5t-172.5 -25.5q-61 0 -114 14t-134 66t-133 158.5t-52 239.5q0 79 26.5 220.5t167.5 317.5 t333 279l-158 -144q-118 -139 -188 -282t-70 -297q0 -37 3 -67t22 -114.5t104.5 -163t190 -102.5t163.5 -24q48 0 81.5 8t66.5 28q-116 99 -230 199q48 4 107.5 19t113.5 30q23 -94 40 -135t45 -85q212 133 335.5 315.5t123.5 427.5q0 176 -72.5 302.5t-183.5 158t-164 31.5 q-114 0 -229 -107t-115 -300q0 -57 16.5 -133t60 -138t130.5 -146q-107 66 -168 172t-61 235q0 32 7.5 106.5t57.5 165.5t131 137.5t144 69.5t127 23q51 0 107 -18z" />
<glyph unicode="R" horiz-adv-x="1304" d="M1178 1384q59 38 121.5 62t123.5 24q44 0 80.5 -15.5t72.5 -59t36 -115.5q0 -57 -26.5 -121.5t-99.5 -183.5t-238 -220t-369 -152q4 -48 14.5 -82.5t41 -154.5t115 -331t202.5 -449q-161 202 -262 360t-162 294.5t-133 346.5q212 0 403.5 126.5t273.5 264t96.5 180 t14.5 77.5q0 28 -11 49t-55.5 45t-110.5 24q-92 0 -185 -63t-260.5 -249.5t-298 -430.5t-246.5 -610h-252q101 140 217.5 345.5t224.5 412.5t282 547q-80 -75 -139 -123t-133 -83.5t-152 -35.5q-34 0 -81 12t-82.5 33t-39 47t-3.5 37q0 35 21 61.5t54 48.5t64.5 30.5 t62.5 8.5q37 0 83 -11.5t117 -48.5q-26 7 -62.5 13t-71.5 6q-42 0 -76 -9.5t-56 -32.5t-22 -57q0 -22 15.5 -47t45.5 -38t65 -13q53 0 140.5 36t163.5 112t151 194h19q-38 -104 -123 -292t-129.5 -295.5t-75.5 -221.5q97 159 190.5 294t202.5 250.5t241 203.5z" />
<glyph unicode="S" horiz-adv-x="1404" d="M942 1466q25 1 43.5 2t31.5 1q83 0 262 -25t239 -25q57 0 113.5 9t109.5 30q-37 -53 -108.5 -81t-144.5 -38.5t-167 -10.5q-73 0 -215 10.5t-205 10.5q-167 0 -268.5 -53.5t-126.5 -147t-25 -124.5q0 -57 25 -106t68 -96t93 -66.5t108 -19.5q50 0 101 11t71 25.5t51 52.5 q-22 -48 -65.5 -79t-100.5 -31q-102 0 -170 24.5t-117 77t-68 104.5t-19 113q0 51 23.5 149t159.5 181.5t301 101.5zM942 989q60 13 114 13q218 0 290.5 -119t85 -165.5t12.5 -97.5q0 -66 -20.5 -131t-57.5 -132q-53 -86 -143.5 -160t-188.5 -114q34 -47 59.5 -87t40.5 -76 q-10 12 -49 68t-71 87q-56 -25 -89 -37t-90.5 -20t-122.5 -13.5t-131 -5.5q-173 0 -297.5 52.5t-165 130.5t-40.5 108q0 64 51 108.5t109.5 66t122.5 21.5q72 0 141 -20t168 -72.5t171 -106t149 -141.5q139 78 216.5 209t77.5 300q0 105 -38 169.5t-111 104t-131 39.5 q-31 0 -65.5 -8.5t-67.5 -21t-58 -31.5t-57 -42q38 54 80 81t106 43zM538 372q-98 28 -168 27q-70 0 -124 -27.5t-79 -71t-25 -67.5q0 -26 14 -50t60.5 -64t135 -68t191.5 -28q110 0 221 29.5t207 77.5q-110 116 -189 156.5t-244 85.5z" />
<glyph unicode="T" horiz-adv-x="1167" d="M1633 1425q18 4 47.5 21.5t45.5 16.5q-79 -82 -200.5 -112t-279.5 -30q-72 0 -265 19t-267 19q-151 0 -259 -42.5t-154 -118.5t-46 -124q0 -82 73 -160q118 107 240 179.5t259 107.5v-10q-129 -45 -238 -126.5t-182 -191.5q69 -23 133 -23q102 0 195.5 49.5t177 125 t118 119.5t57.5 101h18q-72 -161 -148.5 -336t-136.5 -332t-101 -318q-20 -7 -49 -10t-58 -3t-63.5 2t-50.5 4q64 105 171.5 269.5t178.5 284.5t125 240q-107 -80 -206 -146t-231 -66q-69 0 -138 28q-50 -50 -76 -98.5t-55 -121.5q-18 -53 -29 -104t-11 -102 q0 -63 15.5 -113.5t67.5 -117.5t140.5 -96t219.5 -29q133 0 238.5 68.5t212.5 183.5l15 -17q-142 -145 -292 -230t-320 -85q-34 0 -53 1.5t-88 16t-152 73t-116 142.5t-33 169q0 130 64.5 258t171.5 246q-38 32 -58.5 71.5t-20.5 85.5q0 20 1.5 31.5t26.5 91t150 152t241 96 t166.5 28t91.5 4.5q92 0 287.5 -28.5t265.5 -28.5q87 0 163 16z" />
<glyph unicode="U" horiz-adv-x="1196" d="M1040 1458l7 -4q-208 -145 -386 -336t-307 -409q35 -16 62 -21.5t58 -5.5q29 0 49 4t78.5 22.5t88.5 53t72 117.5q6 3 11 0t4 -10q-25 -67 -70.5 -114.5t-96 -65.5t-85.5 -26t-61 -8q-51 0 -119 30q-60 -117 -81 -197t-21 -149q0 -57 15.5 -109t45.5 -91.5t64 -57.5 t74 -18q34 0 51.5 5t100.5 49t196 151.5t186 207t196 281.5t150 224t60 107t52 133q-116 -88 -179.5 -126.5t-138.5 -38.5q-31 0 -55 6.5t-44.5 19t-27 25t-6.5 28.5q0 29 18.5 54t51 39t68.5 14q32 0 61 -9t50 -25q-38 12 -73 12q-41 0 -62.5 -18.5t-29.5 -30.5t-8 -27 q0 -10 10.5 -24t32 -24.5t48.5 -10.5q38 0 117 41t150 120t144 208l22 -7q-145 -295 -247.5 -517t-188.5 -452.5t-145 -474.5q-22 0 -66.5 -1.5t-66.5 -1.5q-47 0 -67.5 2t-56.5 11q59 85 115 170.5t101 165.5t79 160q-97 -120 -204 -250t-219 -211.5t-238 -81.5 q-44 0 -88.5 10.5t-102.5 39.5t-88 90t-30 146q0 57 17.5 145.5t53.5 163t105 173.5q-47 35 -70.5 91t-23.5 119q0 108 60 191.5t151.5 144t223.5 83.5q116 16 243.5 34.5t209.5 60.5zM430 1287q-142 -89 -195.5 -166t-53.5 -154q0 -66 15 -115.5t66 -93.5q82 113 177 213 t195 190.5t239 206.5q-151 -10 -257 -23t-186 -58z" />
<glyph unicode="V" horiz-adv-x="1063" d="M1169 1451q18 38 52 38q31 0 62.5 -27t39.5 -66.5t8 -77.5q0 -57 -23 -146q13 -18 26 -32t35 -28q6 -13 12 -27q-18 4 -41 22.5t-44 36.5q-29 -75 -62 -156.5t-82 -168t-100 -151.5t-145.5 -172.5t-176.5 -185t-181.5 -159t-191.5 -151.5q-34 25 -47 44.5t-36.5 87 t-39.5 162t-16 186.5q0 116 25 237q-124 29 -150 121t-26 139q0 110 85 218t274.5 156.5t366.5 89.5q-136 -165 -272 -329q-140 -199 -141 -382q10 -1 28 -1q47 0 81.5 14.5t124.5 90.5q-41 -60 -103.5 -93.5t-134.5 -33.5q-3 -25 -6.5 -76.5t-3.5 -73.5q0 -45 19.5 -159 t82.5 -262q200 165 353 316t273 326.5t183 378.5q-39 54 -79 110q-42 69 -42 123q0 30 13 61zM726 1398q-114 -25 -238.5 -53t-221 -86.5t-135.5 -144.5t-39 -141q0 -23 4.5 -47.5t11 -61.5t44 -76t97.5 -51q32 118 107.5 239t162.5 217.5t207 204.5zM1239 1397 q-13 -7 -18 -22t-5 -34v-17q0 -29 11.5 -50.5t61.5 -79.5v38t1 47q0 48 -13 90.5t-38 27.5z" />
<glyph unicode="W" horiz-adv-x="1559" d="M1287 1480q7 6 18 6q16 0 30.5 -13t14.5 -31q0 -155 -46 -276.5t-129.5 -238.5t-163.5 -226q0 -151 17.5 -294.5t61.5 -252.5q225 219 353 364.5t214.5 297.5t138.5 346q-56 78 -93 130t-37 101q0 23 6.5 42t17.5 36t22 17q18 0 44 -20.5t42.5 -45t26 -62.5t9.5 -73 q0 -34 -2 -54t-9 -60q29 -34 63 -47v-10q-18 3 -27.5 7.5t-41.5 24.5q-63 -215 -188 -414t-290.5 -375t-273 -265.5t-116.5 -89.5q-15 0 -21 17t-23 97.5t-23 155t-6 248.5q-75 -63 -197 -195t-182 -189.5t-143 -137.5q-13 -1 -22.5 8.5t-14.5 22.5q-23 193 -30.5 279 t-7.5 160q0 88 3 123t15 100q-82 22 -118 49t-65 85t-29 140q0 123 74 208.5t157 117t250.5 76t255.5 94.5q6 3 25 0q-89 -86 -178 -171q-98 -130 -166.5 -277.5t-85.5 -294.5q54 0 101 36.5t108 112.5l16 -18q-45 -67 -103.5 -114t-121.5 -47q-10 -60 -10 -121 q0 -107 30.5 -226t43.5 -173q48 53 138 140.5t147.5 147.5t105.5 127q35 287 54 385t101.5 236.5t259.5 273.5zM1230 1418q-126 -113 -171 -274.5t-45 -372.5h14q85 120 139 210t91 191t37 207q0 20 -12.5 33t-31.5 13q-11 0 -21 -7zM1760 1407q-10 6 -19 6q-19 0 -24 -14.5 t-5 -21.5q0 -29 22.5 -73t67.5 -113q0 72 -9.5 136.5t-32.5 79.5zM547 1343q-99 -39 -199 -78q-98 -44 -166.5 -128.5t-68.5 -187.5q0 -64 29 -111t62 -71.5t100 -43.5q25 121 72.5 229.5t129.5 226.5q80 95 163 190q-23 -4 -59.5 -9t-62.5 -17z" />
<glyph unicode="X" horiz-adv-x="1689" d="M1861 1472q31 9 60 8q66 0 104.5 -38.5t54 -68t15.5 -61.5q0 -31 -31 -82t-115 -93.5t-179 -42.5q-66 0 -130 22q22 -3 42.5 -4.5t43.5 -1.5q29 0 54 5.5t73.5 28t77 44.5t33.5 51t5 41q0 60 -55.5 90.5t-105.5 30.5q-70 0 -144.5 -63.5t-138.5 -140t-156.5 -205.5 t-145.5 -193v-19q99 -13 139.5 -36.5t138.5 -153.5q-59 53 -116 106q-69 53 -162 53q0 -184 22.5 -371.5t63.5 -373.5q-10 1 -23 1.5t-21 0.5q-28 0 -75.5 -3.5t-54.5 -3.5q-31 0 -44.5 2t-37.5 11q26 95 40 197.5t31.5 271.5t29.5 231q-54 -56 -234 -280t-327.5 -336 t-332.5 -112q-38 0 -77.5 4.5t-62 31.5t-22.5 63q0 135 82.5 252t202.5 202t243.5 144t219 80.5t198.5 21.5q53 0 110 -5q0 105 19 270.5t19 237.5q0 39 -4 79q-107 -123 -230.5 -205t-243.5 -82q-88 0 -159 45.5t-71 114.5q0 26 20 72t85 78t154 32q29 0 63.5 -4t61.5 -11 t66.5 -26.5t47.5 -20.5v-8q-25 0 -94 6t-89 6q-66 0 -112 -18.5t-64.5 -49t-18.5 -48.5q0 -31 21.5 -57.5t52.5 -30.5t62 -4q154 0 268.5 85.5t204.5 229.5l17 -8q0 -120 -6.5 -363.5t-6.5 -257.5l266 374q164 192 378 258zM1150 750q-149 0 -234 -15t-244.5 -95.5 t-278.5 -201.5t-119 -281q0 -26 4 -55.5t27.5 -50t54.5 -20.5q16 0 102.5 38t208.5 146t280 299t181 217z" />
<glyph unicode="Y" horiz-adv-x="1323" d="M1458 1419q10 26 41 26q28 0 62.5 -22.5t52 -57.5t17.5 -86q0 -37 -12 -81q-18 -54 -24 -79q16 -22 25.5 -34.5t44.5 -35.5q-28 3 -47 16q-19 18 -31 26q-105 -243 -230 -441.5t-306 -363.5t-360 -233.5t-287 -68.5q-121 0 -197.5 44.5t-106.5 82.5t-30 79q0 23 30 81 t113.5 89.5t206.5 31.5t211.5 -38t140.5 -126q-10 4 -95.5 55t-138.5 51q-31 4 -61 4q-78 0 -138.5 -25.5t-87 -65t-26.5 -63.5q0 -19 9.5 -38t40.5 -50.5t80 -51t109 -19.5q64 0 130.5 21t161 70t159 94.5t113.5 112.5q-75 183 -118 394.5t-43 419.5q0 95 12 203 q-104 -127 -195.5 -187t-205.5 -60q-28 0 -77.5 6.5t-91 24.5t-50.5 52.5t-9 50.5q0 63 48.5 102t96 53t101.5 14q47 0 97.5 -9t108.5 -25v-13q-64 19 -123 19q-42 0 -77 -8t-71.5 -26.5t-53 -40.5t-16.5 -45q0 -29 20.5 -52t48.5 -34t62 -11q15 0 36 3t83.5 13.5t158 95 t140.5 194.5h20q0 -297 53 -545.5t181 -443.5q142 167 244 326.5t153 323.5q-53 79 -82 137.5t-29 113.5q-1 25 8 50zM1529 1369q-31 -4 -31 -52q0 -10 3.5 -31.5t18.5 -53t51 -82.5q9 23 17 53t8 59t-15.5 58.5t-23.5 40.5t-28 8z" />
<glyph unicode="Z" horiz-adv-x="1495" d="M752 1426q83 32 177 32q82 0 157.5 -22.5t139.5 -64.5q-61 13 -128.5 27t-120.5 14q-63 0 -117 -20.5t-82.5 -50.5t-28.5 -45q0 -26 25.5 -50.5t61.5 -34t72.5 -14.5t81.5 -5q152 0 305 70.5t297 185.5q18 0 30 -14q-82 -83 -219.5 -221t-215.5 -217t-157 -162 q59 18 117 29.5t111 11.5q60 0 107 -14.5t115 -77t68 -189.5q0 -50 -31.5 -126t-107 -154t-170.5 -137.5t-214 -116.5q37 -37 56 -75t19 -83q-18 47 -39.5 80.5t-58.5 65.5q-97 -25 -184 -38t-183 -13q-197 0 -332.5 33.5t-184 109t-48.5 107.5q0 29 31 74t102 71t163 26 q20 0 39 -0.5t99 -9.5t164 -49t147.5 -92.5t149.5 -139.5q117 66 192.5 123t138 140.5t82.5 154.5t26 96t6 47q0 45 -31.5 81t-76 50.5t-114.5 14.5q-91 0 -154.5 -33t-154.5 -111q-9 -7 -17.5 0.5t-8.5 21.5q0 16 53.5 65.5t161.5 149.5t181 174.5t148 166.5 q-29 -16 -65.5 -29t-94.5 -36.5t-156 -50t-184 -26.5q-56 0 -102 10.5t-87 34.5t-61.5 52t-20.5 67q0 50 33.5 82t92.5 54zM203 252q-26 -15 -26 -50q0 -48 51 -89t127.5 -53.5t136 -19t96.5 -6.5q45 0 106.5 8.5t110.5 16t82 24t61 31.5q-102 89 -233 143.5t-264 54.5 q-69 0 -128.5 -14t-119.5 -46z" />
<glyph unicode="`" horiz-adv-x="1062" d="M944 1475q12 -16 11 -37q0 -15 -11.5 -52t-11.5 -52q0 -9 1 -15q15 -9 22.5 -22t7.5 -29q0 -7 -3 -22q-9 9 -19.5 3t-21.5 -19q4 -12 -2 -29.5t-6 -18.5q0 -7 6 -13q15 4 20 26t15 28q-4 -15 -18 -41t-28 -41q4 -25 6 -59.5t2 -77.5q-12 -4 -14 11.5t-8 18.5l-30 -25 q-3 16 0.5 31t13.5 51l-10 -60q6 -4 13 2t9 13v9q10 -20 16 -25q9 9 9 33v18q-3 10 -3 15q-10 3 -17 22.5t-14 19.5t-19 -10q-23 -38 -76.5 -68t-100.5 -55q22 -82 39 -137.5t52 -92.5q25 -61 39.5 -125.5t14.5 -130.5q0 -114 -47 -216q4 -9 5 -18.5t2 -15.5 q0 -23 -21.5 -62.5t-21.5 -55.5q0 -15 11 -29t35 -27q4 -18 -15.5 -28.5t-20.5 -21.5q-15 -3 -21 -3q-37 0 -70.5 30t-53.5 51q-9 18 -9 23q0 9 9 16q10 25 10 56q0 18 -4.5 54.5t-4.5 52.5v18t6 26q-6 7 -18 52.5t-42 51.5q-12 -31 -75.5 -112.5t-63.5 -139.5q0 -15 2 -22 q-31 -57 -42.5 -85t-11.5 -63q-3 -15 -7 -27t-14 -24q-9 9 -17 9q-6 0 -20.5 -4.5t-22.5 -4.5q-13 0 -25.5 12.5t-12.5 34.5q0 12 7.5 39t7.5 35q0 22 -12 40q-1 9 -1 26q0 28 17.5 80.5t17.5 80.5q0 15 -4.5 31.5t-4.5 33.5q0 37 30 102.5t30 94.5q0 15 -1.5 22t-8.5 23 q-3 9 1.5 23t-1.5 23l-27 -16q3 1 4.5 10.5t3.5 12.5q-13 9 -18 9q-7 0 -8.5 -25.5t-10.5 -31.5q13 -10 -4.5 -25.5t-31.5 -28.5q-1 1 -5 3h-1q-3 10 7 12t20.5 15.5t18.5 31.5t3 39q-12 -4 -21 -5q-18 0 -29.5 9t-51.5 54v26q0 -22 20.5 -41t39.5 -35q47 0 67.5 12t30.5 35 q1 7 8.5 25t7.5 26q0 6 -4 14q6 -1 17 -2q51 0 71 37q7 6 7 16q-3 15 -3 22q0 10 15 14q1 15 -11.5 20t-24.5 11h-8l4 13q-6 1 -17 2q-31 0 -81 -50t-75 -50q-10 0 -16 2q44 16 75 38t38 58q13 -4 26 -4q31 0 61 27.5t58 54.5q-15 -15 -30.5 -31t-12.5 -29q23 19 77.5 44.5 t66.5 31.5q-7 1 -25 1q-31 0 -56 -13q41 13 84 26q48 20 57 63q-12 9 -26 11t-36 2q-20 0 -43 -29.5t-36 -29.5t-29 16q-9 -9 -46 -26t-46 -39q6 -3 15 -3h19q-18 -4 -33 -4t-38 2t-25 2q-15 0 -22 -1q-15 -10 -18 -22t-9 -41q-23 -15 -42.5 -53.5t-41.5 -84.5q7 7 16 49 t22 57q-9 6 -24 -1t-20 -7q-9 0 -17 9l-4 27l-21 -5l2 44h-25v9q13 -12 29 -12q15 0 25.5 8t31.5 29l-25 7q4 3 9 6q13 3 16 9l-19 14l29 -6q-6 -9 5 -30q-10 -7 -15 -9q3 -10 15 -10h19q-13 -9 -28 -33t-28 -45q29 0 44.5 14t69.5 87q-32 44 -85.5 57t-129.5 13h-31v9 q22 -4 44 -4h30.5t29.5 1q31 0 56 -10v21t1 23q0 26 -9 41l-32 -25q-7 9 3 24t10 17q0 7 -11 13l-21 -4q-4 26 16 41q-3 23 -3 30q0 19 7 39t33 58q20 37 76.5 47t69.5 17q12 -12 27 -11q9 0 27.5 5.5t29.5 5.5q19 0 32 -17q-12 10 -28 10q-12 0 -33 -6.5t-28 -6.5 q-15 0 -27 10q-6 -6 -19 -9t-25 -3q-23 1 -32 2q-25 0 -25 -15l3 -12q-18 -9 -28.5 -14t-18.5 -12l38 -23q-10 -4 -24 -2q6 -12 -9.5 -26.5t-15.5 -21.5q0 -25 13 -78.5t13 -73.5q0 -15 -1 -22q4 -32 46.5 -56.5t49.5 -32.5q10 -6 21 -6q16 0 46 24t52 18q20 10 42 45.5 t41 43.5q22 19 10 37q-13 10 -17 9l-8 -27q0 23 -28.5 30.5t-28.5 28.5h38q1 10 -8 18t-21 20h9q-9 32 -36.5 52t-68.5 31l13 9l-32 15q12 4 27 4q23 0 45.5 -8t38.5 -23l22 -32q-3 -1 -13.5 11.5t-19.5 6.5q3 -15 23.5 -23t16.5 -31h9q4 12 4 22q0 22 -17.5 50.5 t-26.5 41.5l32 -25l5 4q13 -6 16 -36t20 -37q-16 9 -22.5 -11.5t-19.5 -17.5q6 -9 9 -12q9 10 33 10q29 0 35 9q6 -4 14 -9q6 16 -19 36l-11 -5q-6 3 -8.5 15.5t-5.5 24.5q6 -3 15.5 -23.5t28.5 -16.5q0 20 -45.5 65.5t-46.5 48.5q16 -9 54 -49t45 -46l13 -74q-6 3 -13 7 t-12 -3q0 -9 5.5 -30t2.5 -36q-19 0 -42 -30.5t-39 -36.5q-4 -7 -4 -16q0 -16 13 -21q12 4 24 15.5t45 46.5q12 60 40 100t80 56q12 -6 29 -6q13 0 27 3l28 6q-20 -9 -49.5 -55t-50.5 -55l4 -4q-1 -1 -3.5 -2t-9.5 -2l-5 4l43 29l-19 19q22 12 34.5 19.5t47.5 36.5 q-42 -3 -85 -6q-51 -9 -67 -47q-12 -19 -24.5 -40t-12.5 -40q0 -6 3 -18q15 1 35 -6.5t28 -7.5q13 0 26 14q-4 6 -12 6h-11q19 19 36 9q20 31 98.5 47.5t94.5 62.5q-7 -38 -100.5 -66t-114.5 -69q-9 -37 -49 -83q-34 -35 -66 -69l48 50h-25q-50 -22 -82.5 -39t-47.5 -49 q7 -20 29 -21q6 0 13 5q-15 -10 -22.5 -21t-7.5 -22q0 -7 6 -13q51 19 103 38q-3 -1 -41 -18t-45 -33l7 -7q1 7 14 1t20 2q53 22 75.5 30t54.5 8h16l22 16q-7 9 -18 13t-23 4q-15 0 -34.5 -4t-36.5 -7l3 20q6 0 30 -3.5t40 -3.5q31 0 44 11q0 25 -6.5 35.5t-53.5 57.5 q15 -3 25.5 -6t16.5 -15q85 38 132 64.5t74 70.5l22 -5q-4 9 -4 16q0 12 17 32t9 39l34 23q-4 13 -21 13q-7 0 -19 -3q9 16 5 28h-25q35 6 37 43.5t5 72.5l-4 19q12 1 19 3.5t7 12.5q1 6 -8 16l-12 -10zM329 1409q19 4 40 9q-20 -4 -26.5 -5t-13.5 -4zM247 1368l34 4v-20 q4 -23 27.5 -39.5t46.5 -19.5l-13 21q10 -3 47.5 -4.5t44.5 -29.5l5 3q-12 28 -45 47t-103 26q0 10 -7.5 17.5t-17.5 7.5q-12 0 -19 -13zM628 1254l5 -5l-35 -92zM345 1224q-7 -15 15.5 -17.5t21.5 -15.5q-6 -4 -19 -5h-18v25q-6 4 -13 0t-12 0zM276 1210v-9l-29 12z M228 1178q6 15 22 14q23 0 34 -19q-10 4 -29 5h-27zM279 1140q0 -12 16 -12h24q-10 -6 -18 -13q1 -9 14 -9q16 0 17 -3l-31 -13l9 -9q-7 -3 -14.5 6t-8.5 9l11 14q-1 1 -15 9t-4 21zM51 1099q15 -13 50 -17t47 -10v-33l10 4l-10 -10l-31 -5l26 30q-12 12 -47.5 17.5 t-44.5 23.5zM499 948l31 26l2 -3l-32 -27zM702 895q-20 4 -36 5q-44 0 -117.5 -27t-94 -32.5t-43 -15t-48.5 -22.5q-19 -16 -16 -41q6 6 16.5 9t21.5 3h14l-52 -48q-10 -20 -11 -47q0 -18 7.5 -51.5t7.5 -48.5q-29 -50 -45 -86.5t-16 -78.5q0 -15 1.5 -24.5t5.5 -22t4 -17.5 q0 -12 -11 -25q4 -9 4 -16q0 -13 -19 -39.5t-19 -44.5q0 -7 4 -19q0 -54 5.5 -79.5t35.5 -31.5l-22 -3q-10 -16 -17 -27.5t-7 -25.5q0 -9 8 -17q12 -16 22 -16q7 0 20.5 13t20.5 13q9 0 19 -12l10 31q-6 12 -5 27q0 23 31.5 76.5t32.5 60.5q-4 16 -4 28q0 29 21 78t22 56 l5 -30q22 19 30.5 35.5t23.5 59.5l9 -21q13 20 19 34.5t6 31.5q-16 23 -74.5 48t-63.5 28l7 9q82 -39 164 -79q34 19 85 78t59 67q-9 -31 -67.5 -89.5t-58.5 -95.5q0 -25 20 -54l22 9q-7 -20 -13 -44.5t-6 -44.5q0 -31 15 -54q4 -12 -2.5 -40t-6.5 -39q0 -28 34 -28l-10 -25 q-22 18 -28 18q-7 0 -12 -8l7 -17q28 0 57.5 -41t64.5 -34l1 34l31 -10q6 10 6 19q0 16 -27 41.5t-29 32.5l9 10q42 39 45 131t32 133q6 28 9 54t3 60q0 89 -29 164.5t-94 120.5l16 13zM483 1224l4 6l-16 6l-1 -6zM420 1365h-10l19 -12zM298 1343q0 -9 1 -17.5t11 -8.5 q3 4 -2.5 11.5t-9.5 14.5zM933 1299l-3 -23h25q6 20 -22 23zM515 1271l-16 5zM938 1390l4 22zM146 970q25 -6 45 16t30 28q-37 -6 -52.5 -16t-22.5 -28zM503 1246l16 -22v14q0 8 -16 8zM546 1235q3 -1 4 -15q4 -3 9 -4v13q-4 4 -6.5 4.5t-6.5 1.5zM310 707h6q16 9 16 26 q-9 0 -18.5 -8.5t-3.5 -17.5zM490 734q7 29 32 21q-13 -18 -32 -21zM755 345q-4 -13 -14.5 -24.5t-25.5 -19.5q-12 -1 -16 3.5t-16 21.5q7 -9 16.5 -17.5t23.5 -2.5zM323 298q6 -7 13.5 -13.5t17.5 -3.5q-7 -7 -19.5 0t-11.5 17z" />
<glyph unicode="a" horiz-adv-x="784" d="M897 657v-16q-51 10 -107 10q-171 0 -318 -96.5t-219.5 -197.5t-85 -124.5t-12.5 -55.5q0 -23 20 -58.5t74 -35.5q22 0 85.5 26.5t141.5 101t125 147t90 148.5t53.5 80t29.5 4q23 0 45 -11q-110 -241 -219 -481q-1 -16 11 -16t36 12.5t46 23.5q22 10 34 9q-1 -6 -1 -10 q-19 -6 -113.5 -61.5t-118.5 -55.5q-20 0 -20 26q0 64 33 128t64 121q-91 -89 -180 -178q-116 -98 -215 -98q-22 0 -53 6.5t-56 30.5t-25 59q0 199 148.5 334.5t294 183.5t191 57t88.5 9q64 0 133 -22z" />
<glyph unicode="b" horiz-adv-x="659" d="M601 1284h16q-45 -138 -94 -243.5t-154.5 -323t-151.5 -332.5l2 -8q82 136 165.5 218t200.5 82q38 0 67.5 -23.5t42 -68.5t12.5 -95q0 -83 -45 -163.5t-151 -175.5t-163.5 -125t-119.5 -30q-42 0 -89.5 16.5t-73.5 43t-31 55.5t-6.5 41.5t-1.5 28.5q0 22 31 98t110 233.5 t155.5 312t125.5 277.5q4 18 -16.5 35t-43.5 17q-29 0 -30 13q0 12 14 12q80 7 132.5 28t96.5 77zM503 584q-95 -25 -170.5 -99t-114.5 -170q-15 4 -18 9t-5 20q-6 -16 -45.5 -82.5t-39.5 -110.5q0 -20 1.5 -32t10 -36t32 -36.5t51.5 -12.5q10 0 95.5 12.5t193 141 t107.5 277.5q0 23 -4.5 49.5t-27.5 48.5t-53 22q-9 0 -13 -1z" />
<glyph unicode="c" horiz-adv-x="620" d="M176 530q64 64 135 105t145 41q42 0 77.5 -14t73.5 -48.5t38 -79.5q0 -32 -27.5 -64.5t-68.5 -32.5q-22 0 -32.5 10.5t-10.5 17.5q0 4 23.5 32t23.5 46t-16 43t-43 37.5t-62 12.5q-31 0 -89.5 -16.5t-112 -79.5t-79 -133.5t-25.5 -116.5q0 -64 41 -144t137 -80 q66 0 124.5 33t103.5 88q12 9 18 9q4 0 5.5 -5t0.5 -11q-23 -47 -54.5 -74.5t-82 -55t-88.5 -41t-76 -13.5q-28 0 -72 11.5t-75.5 32.5t-56.5 74.5t-25 115.5q0 79 40.5 153.5t109.5 146.5z" />
<glyph unicode="d" horiz-adv-x="861" d="M1183 1322q4 1 5 -8t-5 -25q-88 -196 -208.5 -467t-155.5 -347t-168 -354q-4 -10 -1.5 -16t11.5 -6q13 0 22 4t40.5 18.5t43 20.5t30.5 23q-1 -18 -41.5 -47.5t-105.5 -76.5t-94 -47q-13 0 -19.5 22.5t-6.5 50.5q0 56 40 136.5t44 94.5q-155 -170 -231.5 -234.5 t-196.5 -64.5q-28 0 -64.5 7t-52 35.5t-15.5 69.5q0 38 42.5 173.5t244.5 266.5t439 131q-16 -6 -55.5 -15t-148.5 -36.5t-249.5 -148.5t-140.5 -290q0 -47 12.5 -76.5t38.5 -29.5q143 0 282 139t221 306.5t156.5 324t108.5 292.5q4 18 -28.5 26.5t-40.5 14.5q15 18 51.5 20 t58.5 15.5t70.5 51t66.5 46.5z" />
<glyph unicode="e" horiz-adv-x="661" d="M297 619q38 25 92 43t105 18q44 0 83.5 -14t69.5 -43t46 -57.5t16 -62.5q0 -18 -7 -42q0 -32 -177.5 -96t-303.5 -83q159 59 265 106.5t106 73.5q0 61 -33.5 109.5t-75 56t-63.5 7.5q-75 0 -136.5 -44.5t-96.5 -105.5t-49.5 -107t-14.5 -91q0 -78 49.5 -148t99.5 -76 t67 -6q59 0 121 31.5t118 62.5q-76 -69 -154.5 -113t-158.5 -44q-47 0 -101 22t-88 72.5t-38 87t-4 47v15.5q0 116 68.5 207.5t194.5 173.5z" />
<glyph unicode="f" horiz-adv-x="659" d="M892 1280q20 -4 33 -18t22.5 -36t9.5 -38q0 -23 -14 -48t-35.5 -46.5t-46 -31t-54.5 -9.5q-15 0 -31.5 3t-35.5 7q50 6 88.5 26t45.5 50t7 47q0 26 -10.5 46t-30 30.5t-35.5 10.5q-31 0 -50 -14t-44 -39q-78 -91 -120 -188t-127 -324h23h21h17h50.5t52.5 1 q-19 -22 -50 -30t-66 -8h-28.5t-27.5 2q-89 -195 -175 -374t-136.5 -272t-116.5 -191q48 -6 71.5 -14t64.5 -34q-28 7 -53.5 10t-97.5 9q-133 -181 -213.5 -260t-209.5 -79q-26 0 -39 1t-57 13t-44 89q0 31 42.5 108t165.5 122t289 45q61 113 120 234.5t144.5 306.5 t133.5 286h-44q-34 0 -59 5t-59 23q28 3 67.5 4.5t58.5 1.5h48q10 18 100 205t172.5 281t199.5 94q26 0 63 -7zM-278 -227q-82 -44 -131.5 -95t-49.5 -120q0 -18 2 -31.5t19.5 -24t38.5 -10.5q18 0 81 27.5t133.5 106.5t121.5 190q-35 4 -63 4q-39 0 -71.5 -10.5 t-80.5 -36.5z" />
<glyph unicode="g" horiz-adv-x="795" d="M571 642q99 26 181 27q82 0 155 -28q-53 9 -102 9q-181 0 -338.5 -98.5t-228 -195.5t-84.5 -127t-14 -56q0 -39 26 -66t59 -27q12 0 79.5 14t149 88.5t136 156.5t149.5 240q15 -1 34.5 3.5t25.5 4.5q12 0 17 -2l-63 -146q-50 -114 -111 -236.5t-119.5 -238t-104.5 -216.5 q38 -13 56.5 -21t33.5 -30q-18 0 -51.5 14t-45.5 15q-61 -129 -178 -213t-264 -84q-64 0 -109.5 17t-62 52t-16.5 57q0 45 53 104t160 94t212 35q73 0 114 -16q7 18 89.5 194.5t112.5 258.5q-59 -57 -149.5 -141t-205.5 -84h-37q-18 4 -38 8.5t-40 31.5t-20 62 q0 192 159 335.5t380 204.5zM-127 -440q-6 -10 -6 -25q0 -22 11 -42.5t27.5 -34.5t44.5 -14q29 0 63.5 11t95.5 45.5t115.5 99.5t87.5 157q-48 9 -93 9q-116 0 -205.5 -55.5t-140.5 -150.5z" />
<glyph unicode="h" horiz-adv-x="816" d="M720 1273q9 9 13 2t4 -21q0 -18 -8 -30q-60 -118 -120 -248t-118 -257.5t-121 -253.5q78 67 143.5 99.5t153.5 70.5t101 38q31 0 53.5 -14.5t15.5 -36.5q-26 -75 -56.5 -139.5t-94 -192.5t-91.5 -195q-1 -18 12 -17q18 0 59.5 24.5t69.5 42.5l6 -21q-18 -9 -100 -68 t-130 -59q-19 0 -39 6.5t-20 34.5q0 19 7 36.5t61 113.5t104.5 196t70 153.5t19.5 59.5q0 13 -19 13q-16 0 -31 -5t-78 -37.5t-113.5 -61t-118.5 -80.5q-39 -70 -83.5 -161t-74.5 -152.5t-49 -99.5q-18 -12 -47 -12q-16 0 -26.5 1.5t-29.5 6.5l-6 13l508 1055q10 20 10 32 q0 13 -6.5 16.5t-26.5 8.5q-7 3 -17.5 0t-13.5 -3q-10 0 -18 10q16 28 72 39.5t70.5 21t48.5 37.5t54 34z" />
<glyph unicode="i" horiz-adv-x="431" d="M328 663q10 6 25 6q35 0 30 -25q-25 -123 -98 -275t-140 -289q10 -4 20 -7q104 50 130 45q-18 -6 -129.5 -65t-131.5 -59q-15 0 -15 13q0 9 5 20.5t113.5 241.5t125.5 293q6 19 -7 19q-15 0 -60 -25t-60 -31q37 42 81 73t111 65zM456 1030q29 0 48.5 -23.5t19.5 -55.5 q0 -29 -23.5 -48t-55.5 -19q-29 0 -48.5 23t-19.5 56q0 29 23.5 48t55.5 19z" />
<glyph unicode="j" horiz-adv-x="419" d="M445 666q13 -4 13 -33q0 -26 -6.5 -45.5t-39.5 -104.5t-84.5 -192.5t-124.5 -251.5t-99 -201q45 -13 71.5 -22t57.5 -40q-10 1 -66.5 15t-80.5 14q-61 -143 -152.5 -239t-175 -107.5t-94.5 -11.5q-78 0 -114.5 38t-36.5 76t49.5 115t166.5 122t259 45q37 59 92 179.5 t87 183t78 159.5t80 185q3 10 -5 19.5t-23 9.5q-7 0 -16 -5t-39.5 -30t-48.5 -20q-7 -1 -8.5 3t2.5 11q23 12 95 74t119 62q19 1 44 -8zM-408 -455q-1 -23 30 -48t56 -22q45 6 79 26.5t77 74.5t75 107.5t69 123.5q-209 -34 -297.5 -102t-88.5 -160zM524 1024 q26 0 43.5 -20.5t17.5 -46.5t-20.5 -44t-46.5 -18t-44 20.5t-18 47.5q0 26 21 43.5t47 17.5z" />
<glyph unicode="k" horiz-adv-x="782" d="M679 1273h10q-6 -44 -32.5 -98t-67 -144t-100 -223.5t-126 -276.5t-149.5 -307q86 111 182.5 235.5t191.5 218t178.5 143t118.5 49.5q34 0 59.5 -25.5t25.5 -61.5q0 -34 -31 -69q-13 23 -34 37t-51 14q-10 0 -110 -29t-233 -185q0 -259 38 -480.5t140 -528.5 q-129 282 -194.5 465t-111.5 395q-48 -51 -150.5 -185t-141.5 -216q-10 0 -22.5 -0.5t-17.5 -0.5h-47t-32 -1q54 105 163 320t212.5 432t164.5 359q-18 12 -34 24q-13 3 -44 10q63 22 133 50t112 79z" />
<glyph unicode="l" horiz-adv-x="390" d="M550 1189q10 4 57.5 35t66.5 36q-75 -187 -136 -325.5t-200 -436.5t-189 -409q-3 -13 9 -13q10 0 71.5 31.5t87.5 38.5v-14q-25 -13 -120 -82t-127 -69q-23 0 -30.5 20.5t-7.5 40.5q0 50 53 148t87 179.5t97 210.5t127.5 261t88 190.5t23.5 67.5q0 25 -37 33.5t-45 12.5 q18 13 62 25t62 19z" />
<glyph unicode="m" horiz-adv-x="1133" d="M778 669q10 -7 10 -30q0 -38 -16 -84.5t-20 -65.5q116 88 181 121.5t118 48.5t65 15q16 0 30 -12t14 -29q0 -7 -3 -17t-21 -61.5t-55.5 -135t-81.5 -182t-63 -149.5q-7 -22 12 -22q15 0 37.5 10t39.5 25l50 38l8 -6q-61 -57 -101.5 -91.5t-87.5 -34.5q-26 0 -53 11 q-12 13 -12 32t20 54t65.5 149t134.5 337q3 6 0.5 10t-13.5 4q-13 0 -31.5 -4.5t-91.5 -30t-150 -114.5t-161 -263t-91 -188q-19 -6 -46 -5q-10 0 -21.5 1t-20.5 1q31 80 101 224t100 209.5t53 153.5q4 12 3 16.5t-9 4.5q-20 0 -94 -42t-104.5 -56.5t-65 -33t-63.5 -37.5 l-201 -434q-10 -3 -25.5 -6.5t-29.5 -3.5q-18 0 -26.5 1.5t-22.5 9.5q12 28 81.5 175t107.5 229.5t69 161.5q4 15 -9 15q-16 0 -71 -25.5t-72 -30.5q78 57 141.5 103.5t99.5 46.5q29 0 40 -32q4 -15 -22.5 -79.5t-27.5 -74.5q29 -3 79.5 30.5t66.5 41t100.5 59.5t120.5 52 q20 0 35 -10z" />
<glyph unicode="n" horiz-adv-x="826" d="M606 620q35 18 89 36t88 18q38 0 38 -24q0 -6 -17 -51t-64.5 -145.5t-86.5 -188t-63 -176.5q-7 -22 8 -22t67.5 28t68.5 34q-44 -34 -109 -81.5t-145 -47.5q-22 0 -22 26q0 18 9.5 44.5t27 74t100 210.5t91.5 185.5t9 30.5q0 28 -14.5 30.5t-26.5 2.5t-52 -16.5 t-106.5 -55.5t-145.5 -86q-41 -72 -97.5 -197.5t-100.5 -241.5q-15 -16 -31 -16q-9 0 -31.5 6.5t-33.5 9.5q39 80 79.5 177t85.5 203.5t79 174.5q7 15 -6 29.5t-32 8.5q-10 -3 -59 -31t-68 -31q7 4 94 70t124 66q22 0 40 -16t18 -48q0 -26 -6.5 -41.5t-50.5 -95.5 q76 50 125 79t127 68z" />
<glyph unicode="o" horiz-adv-x="687" d="M531 671q45 0 75 -11.5t58.5 -65.5t28.5 -132q0 -85 -44.5 -164.5t-114 -152.5t-137.5 -109t-140 -36q-25 0 -38 1.5t-57.5 14t-82 58.5t-41.5 82.5t-4 47v15.5q0 149 105 267t260 171q-111 -45 -185.5 -143.5t-84 -169t-9.5 -88.5q0 -63 37.5 -113.5t85.5 -68t80 -17.5 q66 0 140 62t116.5 134t42.5 161q0 39 -15.5 105t-60 75t-53.5 9q-41 0 -72.5 -25t-56.5 -67.5t-25 -89.5q0 -82 62 -143q-39 3 -56 45q-10 34 -19.5 59t-9.5 57q0 34 12.5 63.5t58.5 94.5t144 74z" />
<glyph unicode="p" horiz-adv-x="753" d="M717 680q42 0 76 -25t34 -63q0 -196 -160.5 -351.5t-294.5 -195t-175.5 -52t-86.5 -18.5l-245 -538l-120 -2q28 54 98.5 181.5t113 211.5t71.5 156q-26 0 -57 6t-41 6l11 26q20 -6 52.5 -6t41.5 -1q42 79 79.5 169.5t59.5 155t39 117t28 106.5q6 25 -7 25t-55.5 -26.5 t-70.5 -42.5l2 22q23 10 119 66.5t119 56.5q13 0 13 -10q1 -9 2 -25q0 -45 -19 -97q-34 -78 -66 -155l13 -1q121 177 222.5 240.5t203.5 63.5zM667 585q-143 0 -244 -87.5t-153.5 -187t-139.5 -295.5q28 0 66 11.5t134.5 36.5t232 169t135.5 321q0 32 -31 32z" />
<glyph unicode="q" horiz-adv-x="871" d="M957 666v-15q-16 -4 -34 -4q-16 0 -63 8t-64 8h-13q-225 -22 -409.5 -154t-230.5 -338q-6 -31 22 -66t60 -35q104 0 207 80.5t183.5 192.5t148.5 241q19 3 36.5 5.5t27.5 2.5q20 0 35 -7q-28 -78 -82 -182.5t-109.5 -209.5t-89.5 -186q47 34 104 68.5t107 40.5 q-15 -20 -60 -46t-113.5 -79.5t-136.5 -136t-103 -161t-98 -242.5q-12 -3 -33.5 -4t-45.5 -1q-16 1 -25 1h-13q69 148 146 286t153.5 275t129.5 248l-34 -10q-78 -88 -127.5 -137.5t-111 -87t-131.5 -37.5q-31 0 -60 8t-47.5 26.5t-34.5 58t-16 88.5q0 76 44.5 135.5 t216.5 219t513 159.5q73 0 151 -13z" />
<glyph unicode="r" horiz-adv-x="650" d="M707 664q9 -3 14.5 -8t15 -22t9.5 -40q0 -31 -14.5 -58.5t-30.5 -19.5q-16 9 -40.5 43.5t-47.5 34.5q-16 0 -87 -33t-150 -123.5t-139 -209t-113 -225.5q-16 -6 -32 -6q-10 0 -29 3t-31 3q35 82 80.5 172.5t97.5 193t71.5 145.5t19.5 55q0 16 -6.5 27t-15.5 7 q-35 -12 -70 -32t-60 -27q48 57 93.5 82.5t89.5 36t50 10.5q37 0 39 -17t2 -31q0 -50 -31 -106l-58 -96q19 18 116 132.5t200 114.5h22.5t34.5 -6z" />
<glyph unicode="s" horiz-adv-x="700" d="M420 671q73 0 127 -20.5t93.5 -58.5t50.5 -69t11 -75q-18 56 -50.5 94.5t-69 53.5t-80.5 15q-23 0 -67 -7t-86 -36.5t-58 -77.5t-16 -77q0 -28 22 -62t63 -46t110 -12q-37 -19 -81 -19q-72 0 -136 57t-64 133q0 26 14.5 73.5t76 90.5t140.5 43zM440 434q60 0 96 -10.5 t80 -57t44 -116.5q0 -28 -22 -99.5t-121 -111t-249 -39.5q-85 0 -139 33t-74.5 74.5t-20.5 57.5q0 25 18 48t45 31t54 8q91 0 158 -101q-25 23 -51.5 38.5t-51.5 15.5q-28 0 -55 -23.5t-27 -57.5q0 -16 21.5 -40t64 -43t88.5 -19q34 0 89.5 14t101.5 66t55.5 99.5t9.5 64.5 q0 48 -27.5 80.5t-52.5 43.5t-56 11q-13 0 -30.5 -3t-36.5 -7q22 16 42.5 29.5t46.5 13.5z" />
<glyph unicode="t" horiz-adv-x="394" d="M549 1077l77 -2q-28 -78 -91.5 -214.5t-76.5 -165.5h22h17h56.5t52.5 1q-3 -4 -5.5 -13t-5.5 -10l-144 -2q-146 -293 -292 -583q-6 -18 8 -18q15 0 65 25t61 29v-17q-16 -4 -102 -56t-113 -52q-22 0 -39 10t-10 25q83 189 162.5 347.5t158.5 289.5q-38 0 -82 1.5t-63 1.5 l6 21h150q48 104 97 203.5t91 178.5z" />
<glyph unicode="u" horiz-adv-x="798" d="M319 671q10 6 25 6q20 0 35 -11t10 -28q-22 -89 -64 -182q-41 -80 -85 -168t-66 -159q-4 -18 13 -18q13 0 41 14.5t53 39t154.5 132.5t200.5 191.5t97 185.5h10.5t18.5 2q13 0 32 -1.5t40 -5.5q-20 -64 -64 -161t-92 -192t-80 -154.5t-32 -72.5q0 -28 24 -20q23 6 61 29 t57 32q4 -1 3.5 -7t-0.5 -10q-25 -9 -93.5 -59t-106.5 -50q-18 0 -31 5.5t-29 18.5q16 63 84.5 204t73.5 156l-25 1q-42 -37 -118.5 -103.5t-178 -146t-151.5 -108t-59.5 -32t-17.5 -3.5q-10 0 -24.5 8.5t-14.5 30.5q0 19 39.5 94.5t101 207t110.5 250.5q-12 1 -22 4 q-116 -59 -125 -60q32 38 83.5 73t111.5 67z" />
<glyph unicode="v" horiz-adv-x="585" d="M468 628q15 44 70 43q32 0 60 -19t34 -48t6 -58q0 -129 -118.5 -236t-175 -157.5t-103 -87t-86.5 -65.5q-48 79 -74.5 153t-26.5 164q0 116 38 200t85 108.5t74 34t49 9.5q20 0 45 -13.5t25 -65.5q0 -13 -1 -21l-9 -19q-10 34 -21 69q-9 16 -24 23.5t-33 7.5 q-25 0 -46 -15t-44.5 -48t-37.5 -79t-14 -88q0 -80 39 -171.5t64 -149.5q95 95 191 192q102 118 103 244q0 23 -1.5 41t-20.5 31.5t-47 20.5z" />
<glyph unicode="w" horiz-adv-x="890" d="M803 657q20 15 50 14q35 0 65.5 -23t40 -59t9.5 -65q0 -80 -52.5 -153.5t-147 -156t-150 -131.5t-119.5 -83q-29 44 -60 120.5t-41 119.5q-95 -99 -175.5 -174.5t-92.5 -65.5q-38 26 -50.5 73.5t-20.5 86.5t-11 62.5t-3 52.5q0 145 80 236.5t132.5 125.5t115.5 34 q-67 -53 -114 -90t-72 -86.5t-35 -94.5t-10 -93q0 -104 28.5 -154.5t35.5 -50.5q22 0 96 72.5t94 90.5q-6 42 -6.5 60.5t-0.5 28.5q0 110 40.5 193t94.5 105t71 22q26 0 43 -16.5t17 -46.5q0 -79 -28.5 -123.5t-129.5 -170.5q26 -88 41 -131.5t40 -87.5q161 111 222.5 207.5 t61.5 190.5q0 31 -4.5 53t-36 51t-31.5 39q0 11 13 18zM525 594q-26 -23 -35.5 -53t-9.5 -71q0 -26 3.5 -69t3.5 -44q72 88 92.5 118.5t20.5 86.5q0 23 -11 34t-29 11q-19 0 -35 -13z" />
<glyph unicode="x" horiz-adv-x="836" d="M753 679q25 0 53 -25t56 -78q-39 18 -78 18q-32 0 -83 -23.5t-93.5 -71.5t-76.5 -111q31 -80 64.5 -164.5t67 -133.5t55 -56.5t47.5 -4.5v-17q-41 -6 -86 -6h-46.5t-47.5 1l-120 248q-16 -44 -39.5 -76.5t-88.5 -115.5t-183 -83q-47 0 -78 14.5t-43.5 36.5t-12.5 47 q0 20 26.5 67.5t87.5 63.5t96 16t59 -8t40 -30q-18 3 -37.5 6t-38.5 3q-45 0 -77.5 -14.5t-43.5 -40t-11 -36.5q0 -20 13.5 -37.5t27.5 -20t28 -2.5q79 0 136 61t130 173q-37 123 -72.5 197t-69 118t-55.5 44q-25 -1 -48 -2q18 13 38 17.5t33 8.5t27 4q80 0 130 -101 t79 -160q50 111 95.5 192.5t139.5 81.5z" />
<glyph unicode="y" horiz-adv-x="700" d="M294 666q10 10 37 10q23 0 40.5 -10.5t10.5 -26.5q-31 -67 -137 -280t-115.5 -232.5t-9.5 -34.5q0 -29 23 -33h18q73 0 161.5 70t169.5 134l200 403q15 0 39 3.5t27 3.5q23 0 36 -15q-59 -133 -112 -245t-168 -343.5t-153 -307.5q25 -9 52 -28t42 -29v-14 q-26 18 -52.5 29.5t-48.5 20.5q-72 -129 -194 -206.5t-259 -77.5q-26 0 -66.5 5.5t-77 25.5t-36.5 63q0 116 106 170t195 62.5t115.5 10t58.5 1.5q39 0 61 -6q56 101 116.5 221t96.5 207q-80 -67 -160 -135q-102 -78 -181 -78q-45 0 -75.5 15.5t-37.5 30t-7 32.5q0 31 14 60 q32 78 122.5 245t94 178t3.5 13q-13 1 -25 3l-100 -46q22 28 69.5 60t106.5 71zM51 -252q-82 -9 -150.5 -68.5t-68.5 -140.5q0 -28 24 -40t61 -12q20 0 81 11.5t134 89.5t115 176q-12 3 -28 4.5t-29 1.5q-29 0 -73 -9.5t-66 -12.5z" />
<glyph unicode="z" horiz-adv-x="725" d="M300 709q13 -47 45 -77.5t78 -30.5q19 -1 33 -2t22 -1q145 0 271 78q3 -12 3 -18q0 -25 -44.5 -53.5t-69 -55.5t-83.5 -82.5t-72 -68.5q15 0 50.5 1.5t50.5 1.5h19q-4 -25 -21 -34.5t-44 -9.5q-48 1 -95 4l-251 -241l14 -15q80 32 144.5 51.5t129.5 19.5q42 0 77 -9.5 t71 -31.5q59 -41 58 -98q0 -18 -11 -51t-59 -33q-18 0 -38 12q-19 51 -32.5 73.5t-63 36t-118.5 13.5q-75 0 -151.5 -22t-112.5 -43.5t-41 -21.5q-18 0 -18 15q0 7 90.5 92t267.5 252q-18 4 -35 4q-13 0 -26 -0.5t-25 -0.5q-22 0 -31 4q3 20 19 28.5t43 8.5q20 0 40 -2.5 t48 -5.5q47 39 98 85t74 85q-32 0 -109.5 -15.5t-111.5 -15.5q-35 0 -69.5 11t-64.5 34.5t-30 64.5q0 25 18.5 45.5t47.5 20.5q9 -1 15 -2z" />
<glyph unicode="&#xad;" d="M189 585q25 37 54 53t57 26h342q-38 -23 -54 -43t-25 -36h-374z" />
<glyph unicode="&#xfd;" horiz-adv-x="0" />
<glyph unicode="&#x2000;" horiz-adv-x="744" />
<glyph unicode="&#x2001;" horiz-adv-x="1489" />
<glyph unicode="&#x2002;" horiz-adv-x="744" />
<glyph unicode="&#x2003;" horiz-adv-x="1489" />
<glyph unicode="&#x2004;" horiz-adv-x="496" />
<glyph unicode="&#x2005;" horiz-adv-x="372" />
<glyph unicode="&#x2006;" horiz-adv-x="248" />
<glyph unicode="&#x2007;" horiz-adv-x="248" />
<glyph unicode="&#x2008;" horiz-adv-x="186" />
<glyph unicode="&#x2009;" horiz-adv-x="297" />
<glyph unicode="&#x200a;" horiz-adv-x="82" />
<glyph unicode="&#x2010;" d="M189 585q25 37 54 53t57 26h342q-38 -23 -54 -43t-25 -36h-374z" />
<glyph unicode="&#x2011;" d="M189 585q25 37 54 53t57 26h342q-38 -23 -54 -43t-25 -36h-374z" />
<glyph unicode="&#x2012;" d="M189 585q25 37 54 53t57 26h342q-38 -23 -54 -43t-25 -36h-374z" />
<glyph unicode="&#x2013;" horiz-adv-x="583" d="M189 585q25 37 54 53t57 26h483q-38 -23 -54.5 -43t-24.5 -36h-515z" />
<glyph unicode="&#x2014;" horiz-adv-x="844" d="M189 585q25 37 54 53t57 26h702q-38 -23 -54 -43t-25 -36h-734z" />
<glyph unicode="&#x2018;" horiz-adv-x="219" d="M108 1214q31 0 55 -19.5t24 -47.5q0 -41 -16 -58.5t-48 -17.5q0 -48 107.5 -128t111.5 -80q-186 98 -246.5 148t-60.5 123q0 26 21 53t52 27z" />
<glyph unicode="&#x2019;" horiz-adv-x="491" d="M537 1214q31 0 53.5 -28.5t19.5 -59.5q-9 -69 -69.5 -120t-237.5 -143q50 34 134.5 97t84.5 111q-39 0 -51.5 23.5t-12.5 52.5q0 28 24 47.5t55 19.5z" />
<glyph unicode="&#x201c;" horiz-adv-x="362" d="M284 1205q31 0 55 -19.5t24 -47.5q0 -41 -16 -58.5t-49 -17.5q0 -48 107.5 -128t112.5 -80q-186 98 -246.5 148t-60.5 123q0 26 21 53t52 27zM91 1205q31 0 55 -19.5t24 -47.5q0 -41 -16 -58.5t-49 -17.5q0 -48 107.5 -128t112.5 -80q-186 98 -246.5 148t-60.5 123 q0 26 21 53t52 27z" />
<glyph unicode="&#x201d;" horiz-adv-x="412" d="M114 1214q31 0 53.5 -28.5t19.5 -59.5q-9 -69 -69.5 -120t-237.5 -143q50 34 134.5 97t84.5 111q-39 0 -51.5 23.5t-12.5 52.5q0 28 24 47.5t55 19.5zM307 1214q31 0 53.5 -28.5t19.5 -59.5q-9 -69 -69.5 -120t-237.5 -143q50 34 135 97t85 111q-39 0 -52 23.5t-13 52.5 q0 28 24 47.5t55 19.5z" />
<glyph unicode="&#x202f;" horiz-adv-x="297" />
<glyph unicode="&#x205f;" horiz-adv-x="372" />
<glyph unicode="&#x25fc;" horiz-adv-x="680" d="M0 680h680v-680h-680v680z" />
</font>
</defs>
</svg>
